<svg width="104" height="74" viewBox="0 0 104 74" fill="none" xmlns="http://www.w3.org/2000/svg">
<path d="M23.324 73.25C21.3613 73.25 19.4627 72.4393 17.628 70.818C15.836 69.1967 14.3213 66.85 13.084 63.778C11.8893 60.706 11.1853 56.994 10.972 52.642C9.64933 52.77 8.43333 52.834 7.324 52.834C4.84933 52.834 3.036 52.514 1.884 51.874C0.774667 51.234 0.22 50.402 0.22 49.378C0.22 48.354 0.710667 47.2233 1.692 45.986C2.67333 44.7487 4.03867 43.5113 5.788 42.274C7.53733 40.994 9.58533 39.842 11.932 38.818C12.7427 34.466 14.044 29.7727 15.836 24.738C17.6707 19.6607 20.124 14.2847 23.196 8.61C23.4947 8.05533 23.9427 7.778 24.54 7.778C24.924 7.778 25.2653 7.906 25.564 8.162C25.8627 8.418 26.012 8.75933 26.012 9.186C26.012 9.39933 25.948 9.67666 25.82 10.018C23.0893 15.522 20.8067 20.578 18.972 25.186C17.18 29.7513 15.772 33.9327 14.748 37.73C16.668 37.0047 18.716 36.4073 20.892 35.938C23.068 35.4687 25.2867 35.1913 27.548 35.106C28.1453 35.106 28.444 35.1913 28.444 35.362C28.444 35.5327 28.2307 35.7033 27.804 35.874C27.42 36.002 26.7587 36.0873 25.82 36.13C23.7293 36.258 21.724 36.5567 19.804 37.026C17.9267 37.4527 16.156 37.986 14.492 38.626C13.852 41.1007 13.3613 43.4047 13.02 45.538C12.6787 47.6287 12.4653 49.57 12.38 51.362C16.7747 50.4233 20.764 49.058 24.348 47.266C27.9747 45.4313 31.1747 43.3193 33.948 40.93C36.7213 38.5407 39.0467 36.066 40.924 33.506C42.1187 31.8847 42.972 30.4553 43.484 29.218C44.0387 27.938 44.316 26.8287 44.316 25.89C44.316 24.5247 43.8893 23.458 43.036 22.69C42.1827 21.8793 41.052 21.3033 39.644 20.962C38.236 20.578 36.7 20.386 35.036 20.386C33.2867 20.386 31.516 20.5567 29.724 20.898C27.932 21.1967 26.3107 21.6233 24.86 22.178C24.5187 22.2633 24.284 22.306 24.156 22.306C23.6013 22.306 23.324 22.114 23.324 21.73C23.324 21.346 23.5587 21.0473 24.028 20.834C29.276 17.8473 33.0093 15.138 35.228 12.706C37.4467 10.274 38.556 8.226 38.556 6.562C38.556 5.11133 37.8733 4.002 36.508 3.234C35.1853 2.42333 33.436 2.018 31.26 2.018C29.5533 2.018 27.6333 2.29533 25.5 2.85C23.3667 3.40467 21.1693 4.30067 18.908 5.538C17.0307 6.562 15.324 7.778 13.788 9.186C12.2947 10.5513 11.0147 11.9807 9.948 13.474C8.924 14.9247 8.156 16.3113 7.644 17.634C7.132 18.914 6.94 20.002 7.068 20.898C7.068 20.9833 7.068 21.09 7.068 21.218C7.11067 21.3033 7.132 21.3887 7.132 21.474C7.132 22.5407 6.812 23.074 6.172 23.074C5.87333 23.074 5.55333 22.8607 5.212 22.434C4.91333 22.0073 4.764 21.3673 4.764 20.514C4.764 19.234 5.148 17.8687 5.916 16.418C6.72667 14.9673 7.79333 13.5167 9.116 12.066C10.4813 10.5727 11.996 9.186 13.66 7.906C15.324 6.58333 17.052 5.45266 18.844 4.514C21.148 3.27666 23.4093 2.35933 25.628 1.762C27.8893 1.16466 29.9587 0.865997 31.836 0.865997C34.4387 0.865997 36.5507 1.378 38.172 2.402C39.7933 3.426 40.604 4.85533 40.604 6.69C40.604 8.39667 39.772 10.3807 38.108 12.642C36.444 14.9033 33.6493 17.3993 29.724 20.13C31.0467 19.9167 32.284 19.7673 33.436 19.682C34.588 19.554 35.6547 19.49 36.636 19.49C40.3053 19.49 42.9507 20.1087 44.572 21.346C46.236 22.5407 47.068 24.098 47.068 26.018C47.068 27.426 46.6627 28.962 45.852 30.626C45.084 32.2473 43.996 33.9327 42.588 35.682C40.54 38.1993 37.9587 40.6313 34.844 42.978C31.772 45.3247 28.316 47.3513 24.476 49.058C20.6787 50.7647 16.6253 51.9167 12.316 52.514C12.2307 56.3113 12.572 59.4473 13.34 61.922C14.1507 64.3967 15.1747 66.3167 16.412 67.682C17.6493 69.09 18.8867 70.0713 20.124 70.626C21.3613 71.2233 22.3853 71.522 23.196 71.522C23.7933 71.522 24.1987 71.4153 24.412 71.202C24.5827 70.9887 24.8387 70.882 25.18 70.882C25.5213 70.882 25.8413 71.01 26.14 71.266C26.4387 71.522 26.588 71.7993 26.588 72.098C26.588 72.354 26.4387 72.546 26.14 72.674C25.2013 73.058 24.2627 73.25 23.324 73.25ZM7.58 52.002C8.04933 52.002 8.56133 51.9593 9.116 51.874C9.67067 51.8313 10.268 51.7673 10.908 51.682C10.8653 49.89 10.908 48.0127 11.036 46.05C11.164 44.0873 11.3987 42.0393 11.74 39.906C9.00933 41.314 6.85467 42.8927 5.276 44.642C3.69733 46.3487 2.908 47.8633 2.908 49.186C2.908 49.9967 3.292 50.658 4.06 51.17C4.828 51.7247 6.00133 52.002 7.58 52.002ZM91.501 61.474C90.3063 61.474 89.3037 60.962 88.493 59.938C87.6823 58.9567 87.085 57.7407 86.701 56.29C86.317 54.8393 86.125 53.4527 86.125 52.13C86.125 49.57 86.4877 46.7327 87.213 43.618C87.9383 40.5033 88.8343 37.3247 89.901 34.082C91.0103 30.8393 92.141 27.7247 93.293 24.738C94.4877 21.7087 95.5543 18.978 96.493 16.546C97.4317 14.114 98.093 12.1727 98.477 10.722C98.5623 10.338 98.6263 9.99667 98.669 9.698C98.7117 9.35666 98.733 9.07933 98.733 8.866C98.733 8.098 98.4983 7.714 98.029 7.714C97.3463 7.714 96.3223 8.418 94.957 9.826C93.5917 11.1913 92.0557 13.0687 90.349 15.458C88.685 17.8047 87.021 20.4713 85.357 23.458C83.693 26.4447 82.1997 29.538 80.877 32.738C79.597 35.8953 78.701 38.9887 78.189 42.018C78.0183 43.1273 77.7197 43.9593 77.293 44.514C76.909 45.0687 76.525 45.346 76.141 45.346C75.7997 45.346 75.501 45.1327 75.245 44.706C74.989 44.2793 74.861 43.6607 74.861 42.85C74.8183 39.4367 74.7117 36.0233 74.541 32.61C74.3703 29.154 73.9863 25.8473 73.389 22.69C72.493 17.826 71.469 14.37 70.317 12.322C69.2077 10.274 68.0557 9.25 66.861 9.25C65.7517 9.25 64.6637 9.93267 63.597 11.298C62.573 12.6207 61.5917 14.3913 60.653 16.61C59.7143 18.786 58.8823 21.1753 58.157 23.778C57.4317 26.3807 56.8557 28.962 56.429 31.522C56.045 34.082 55.853 36.3647 55.853 38.37C55.853 38.8393 55.853 39.3087 55.853 39.778C55.8957 40.2047 55.9383 40.61 55.981 40.994C56.0237 41.2073 56.045 41.442 56.045 41.698C56.045 41.9113 56.045 42.1247 56.045 42.338C56.045 43.3193 55.917 44.194 55.661 44.962C55.405 45.73 55.1063 46.114 54.765 46.114C54.4237 46.114 54.1037 45.73 53.805 44.962C53.4637 44.194 53.1863 43.234 52.973 42.082C52.7597 40.8873 52.589 39.8847 52.461 39.074C52.3757 38.4767 52.1837 37.5807 51.885 36.386C51.629 35.1913 51.309 33.89 50.925 32.482C50.541 31.0313 50.093 29.6233 49.581 28.258C49.1117 26.85 48.5997 25.6553 48.045 24.674C47.4903 23.65 46.9143 22.9887 46.317 22.69C46.2317 22.6047 46.189 22.5193 46.189 22.434C46.189 22.2207 46.4023 22.0927 46.829 22.05C47.2983 22.0073 47.6183 22.0287 47.789 22.114C48.685 22.37 49.4743 23.01 50.157 24.034C50.8823 25.0153 51.501 26.1887 52.013 27.554C52.5677 28.8767 53.037 30.1993 53.421 31.522C53.805 32.802 54.125 33.8687 54.381 34.722C54.8503 31.778 55.405 28.8767 56.045 26.018C56.7277 23.1167 57.6237 20.2793 58.733 17.506C60.3117 13.666 61.869 10.9353 63.405 9.314C64.941 7.65 66.3917 6.818 67.757 6.818C69.2077 6.818 70.509 7.56466 71.661 9.058C72.8557 10.5087 73.8583 12.45 74.669 14.882C75.5223 17.2713 76.0983 19.874 76.397 22.69C76.5677 24.1407 76.6743 25.7193 76.717 27.426C76.7597 29.09 76.781 30.7327 76.781 32.354V37.346C76.781 38.0713 76.781 38.7327 76.781 39.33C76.781 39.9273 76.8023 40.418 76.845 40.802C77.1437 39.778 77.6343 38.3487 78.317 36.514C78.9997 34.6367 79.8317 32.546 80.813 30.242C81.7943 27.8953 82.9037 25.4847 84.141 23.01C85.3783 20.5353 86.701 18.1673 88.109 15.906C89.5597 13.602 91.053 11.5967 92.589 9.89C94.1677 8.14067 95.7463 6.86067 97.325 6.05C98.2637 5.58066 99.1383 5.346 99.949 5.346C100.888 5.346 101.677 5.62333 102.317 6.178C102.957 6.69 103.277 7.458 103.277 8.482C103.277 10.018 102.957 11.554 102.317 13.09C101.677 14.5833 100.909 16.0553 100.013 17.506C99.117 18.9567 98.285 20.3647 97.517 21.73C96.1517 24.2047 94.7863 27.0633 93.421 30.306C92.0557 33.5487 90.9037 36.898 89.965 40.354C89.069 43.81 88.621 47.138 88.621 50.338C88.621 51.362 88.6637 52.3647 88.749 53.346C88.877 54.3273 89.069 55.266 89.325 56.162C89.709 57.5273 90.1783 58.466 90.733 58.978C91.3303 59.5327 91.9277 59.81 92.525 59.81C93.165 59.81 93.7623 59.618 94.317 59.234C94.8717 58.8927 95.3197 58.5087 95.661 58.082C96.0023 57.698 96.1517 57.4633 96.109 57.378C96.493 57.25 96.6423 57.3567 96.557 57.698C96.4717 58.082 96.301 58.466 96.045 58.85C95.789 59.2767 95.6183 59.5327 95.533 59.618C94.0397 60.8553 92.6957 61.474 91.501 61.474Z" fill="#050D21"/>
</svg>

