<?xml version="1.0" standalone="no"?>
<!DOCTYPE svg PUBLIC "-//W3C//DTD SVG 20010904//EN"
 "http://www.w3.org/TR/2001/REC-SVG-20010904/DTD/svg10.dtd">
<svg version="1.0" xmlns="http://www.w3.org/2000/svg"
 width="1280.000000pt" height="1280.000000pt" viewBox="0 0 1280.000000 1280.000000"
 preserveAspectRatio="xMidYMid meet">

<g transform="translate(0.000000,1280.000000) scale(0.100000,-0.100000)"
fill="#000000" stroke="none">
<path d="M0 6400 l0 -6400 6400 0 6400 0 0 6400 0 6400 -6400 0 -6400 0 0
-6400z m6515 4439 c145 -12 414 -51 550 -79 262 -54 593 -169 830 -288 61 -30
122 -56 136 -58 29 -4 211 -104 255 -140 l29 -24 -27 9 c-14 6 -54 24 -88 41
-34 17 -64 29 -67 26 -3 -2 5 -9 16 -15 11 -6 25 -20 31 -31 13 -25 23 -28
-220 76 -173 73 -334 134 -356 134 -19 0 36 -29 103 -54 64 -24 223 -119 231
-138 2 -5 9 -8 17 -8 16 0 91 -68 83 -76 -3 -3 -41 11 -85 31 -350 162 -841
302 -1248 355 -549 70 -1193 -15 -1746 -231 -156 -61 -534 -248 -653 -323 -48
-31 -93 -56 -98 -56 -11 0 79 90 90 90 6 0 47 33 92 73 8 7 32 24 53 36 20 13
35 26 32 31 -3 4 3 6 12 4 19 -4 81 41 71 51 -3 3 -13 -1 -22 -10 -9 -9 -16
-14 -16 -11 0 3 -36 -13 -80 -36 -44 -23 -80 -47 -80 -54 0 -7 -6 -11 -14 -8
-21 8 -327 -193 -471 -310 -227 -184 -640 -597 -781 -781 -42 -55 -141 -221
-219 -369 -71 -134 -86 -175 -30 -83 19 32 35 60 35 63 0 3 17 27 38 52 52 65
46 58 118 157 95 130 144 184 162 177 11 -4 14 -1 9 12 -4 9 -3 15 1 12 5 -3
15 4 23 16 8 11 20 26 26 34 7 7 13 17 13 23 0 6 13 24 30 41 16 17 30 34 30
38 0 5 13 21 28 38 16 16 51 58 80 94 88 112 125 150 180 185 28 19 52 41 52
50 0 9 6 12 15 9 8 -4 15 -1 15 5 0 6 6 11 13 11 7 0 17 8 24 19 6 10 31 28
55 40 40 21 38 17 -45 -66 -72 -73 -89 -85 -98 -73 -9 12 -10 12 -5 -4 5 -14
-19 -45 -102 -130 -170 -173 -231 -245 -405 -480 -21 -28 -70 -107 -109 -176
-39 -69 -79 -136 -89 -150 -34 -49 -178 -348 -232 -481 -75 -183 -152 -406
-177 -512 -26 -109 -29 -117 -45 -117 -23 0 -39 31 -38 71 2 52 63 281 108
404 19 54 33 100 31 102 -5 5 -50 -104 -121 -292 -31 -82 -62 -158 -70 -169
-17 -22 -35 -13 -35 19 0 34 56 278 81 353 12 35 19 65 17 68 -3 2 -15 -19
-28 -46 -13 -28 -29 -50 -37 -50 -18 0 -17 7 18 112 70 210 199 496 288 643
49 79 153 227 157 222 2 -1 -8 -33 -21 -70 -14 -37 -20 -67 -15 -67 6 0 10 4
10 9 0 4 10 19 23 32 68 74 161 188 174 214 9 17 37 62 63 100 81 122 80 123
-26 15 -43 -44 -81 -80 -85 -80 -34 0 105 197 248 352 273 297 503 503 744
667 57 39 122 84 145 100 243 171 727 385 1119 495 401 113 913 167 1280 135z
m82 -404 c8 -22 1 -26 -37 -19 -30 7 -32 8 -15 21 25 17 44 17 52 -2z m-639
-12 c2 -7 -8 -17 -22 -23 -31 -11 -34 -30 -5 -30 12 0 23 8 26 19 4 17 56 35
67 23 8 -7 -34 -42 -51 -42 -10 -1 -29 -7 -43 -15 -34 -20 -43 -18 -37 5 6 25
-16 45 -31 28 -6 -7 -12 -20 -14 -28 -2 -8 -19 -20 -38 -26 -28 -9 -38 -8 -52
4 -16 13 -19 12 -29 -11 -12 -26 -30 -30 -56 -14 -7 5 -17 6 -22 3 -4 -3 -16
3 -26 14 -12 13 -31 20 -57 20 -38 0 -57 -12 -88 -59 -16 -24 -64 -54 -90 -57
-8 -1 -28 -7 -43 -13 -42 -16 -52 -14 -64 17 -9 25 -11 25 -17 7 -17 -45 -23
-50 -69 -50 -38 -1 -47 3 -56 22 -17 38 -14 41 45 53 31 7 71 18 89 26 18 7
54 18 80 24 26 6 68 20 92 31 39 18 144 41 162 37 3 -1 15 3 26 8 11 6 36 14
56 17 29 4 36 2 35 -10 0 -9 5 -18 12 -20 7 -3 12 4 12 16 0 14 6 21 20 21 11
0 20 -5 20 -10 0 -12 44 -3 80 16 30 16 82 14 88 -3z m242 -5 c0 -8 -13 -14
-32 -15 -18 0 -50 -4 -70 -7 -32 -6 -38 -4 -38 12 0 15 10 18 70 20 52 2 70
-1 70 -10z m504 -10 c5 -10 7 -10 12 0 9 18 21 15 27 -9 5 -18 1 -20 -26 -17
-21 2 -33 9 -35 21 -4 19 13 23 22 5z m262 -13 c14 -13 14 -15 -1 -15 -8 0
-18 -7 -21 -15 -11 -27 -42 -38 -60 -20 -8 8 -24 15 -34 15 -10 0 -26 3 -35 6
-13 5 -11 9 11 20 32 17 65 18 62 3 -2 -6 3 -14 10 -16 6 -3 12 2 12 10 0 14
13 24 33 26 5 1 15 -6 23 -14z m-189 -58 c-3 -9 7 -14 36 -16 49 -3 58 -7 50
-26 -7 -19 -27 -19 -43 0 -9 11 -26 14 -67 10 -42 -4 -54 -3 -51 7 3 7 14 14
26 16 12 2 22 8 22 13 0 5 7 9 16 9 9 0 14 -6 11 -13z m663 -4 c-1 -5 -16 -18
-35 -30 -37 -23 -47 -13 -18 19 16 18 53 25 53 11z m-2359 -113 c34 -19 22
-37 -31 -47 -28 -6 -53 -7 -55 -3 -9 14 5 37 28 48 29 14 35 14 58 2z m2373
-24 c-21 -15 -30 -14 -19 3 3 6 14 11 23 11 13 0 13 -2 -4 -14z m-783 -51
c115 -15 298 -48 434 -80 76 -18 296 -102 306 -118 4 -6 14 -7 23 -4 20 8 63
-11 70 -29 6 -17 -3 -18 -41 -3 -43 16 -336 94 -443 118 -187 41 -245 51 -389
66 -311 33 -335 34 -480 24 -141 -9 -201 -5 -170 11 13 7 241 27 364 33 89 4
207 -3 326 -18z m-1797 -1 c22 -9 -37 -54 -120 -94 -83 -39 -96 -38 -54 5 30
29 37 32 47 19 13 -18 26 -3 17 19 -8 21 29 40 45 24 10 -9 16 -7 29 10 20 26
16 25 36 17z m1059 -31 c-13 -2 -35 -2 -50 0 -16 2 -5 4 22 4 28 0 40 -2 28
-4z m-184 -12 c12 -8 8 -11 -15 -17 -277 -64 -542 -147 -797 -247 -95 -37
-131 -47 -139 -39 -11 11 44 40 217 117 166 74 413 149 595 180 93 16 121 17
139 6z m-829 -10 c0 -15 -36 -37 -99 -62 -31 -12 -63 -28 -72 -36 -20 -16 -62
-17 -57 -1 3 7 20 16 39 21 19 5 41 15 50 23 8 8 28 14 42 14 17 0 27 5 27 14
0 8 12 19 28 24 36 14 42 14 42 3z m3411 -2 c102 -33 312 -156 437 -257 106
-84 292 -264 292 -282 0 -13 -24 -40 -36 -40 -4 0 -38 26 -77 58 -182 150
-337 267 -459 347 -184 121 -221 152 -205 170 6 8 12 14 13 15 1 0 16 -5 35
-11z m-366 -59 c3 -5 -1 -10 -9 -10 -9 0 -16 5 -16 10 0 6 4 10 9 10 6 0 13
-4 16 -10z m-84 -20 c-25 -21 -46 -27 -36 -9 6 9 41 27 55 28 3 0 -6 -9 -19
-19z m808 -47 c31 -15 58 -30 61 -33 3 -3 21 -13 40 -23 89 -45 430 -356 516
-470 45 -60 60 -97 25 -61 -120 120 -342 334 -364 349 -16 11 -41 30 -55 43
-15 13 -52 34 -82 48 -60 28 -183 123 -200 154 -14 26 -8 25 59 -7z m-2134
-13 c166 -15 449 -63 540 -91 312 -95 712 -293 1010 -497 304 -209 663 -579
840 -863 6 -9 30 -42 55 -72 57 -70 173 -296 201 -392 11 -36 -21 -110 -51
-118 -23 -6 -27 -27 -5 -27 8 0 15 5 15 10 0 16 30 11 37 -6 3 -8 1 -20 -6
-27 -6 -6 -11 -28 -11 -48 0 -21 -5 -41 -11 -45 -6 -3 -9 -21 -6 -38 2 -17 -2
-44 -9 -61 -12 -26 -19 -21 -15 11 1 6 -10 16 -24 22 -14 6 -25 17 -25 23 0 7
-13 9 -40 4 l-39 -7 -7 41 c-4 26 -12 41 -21 41 -9 0 -12 -7 -9 -17 15 -52 18
-78 8 -68 -10 9 -19 38 -21 70 -1 15 -26 -15 -26 -32 0 -30 -22 -24 -36 9 -21
51 -164 320 -242 453 -121 207 -213 332 -401 539 -82 91 -328 306 -380 333
-16 8 -54 35 -85 61 -57 46 -136 88 -159 84 -7 -2 -15 4 -18 13 -3 8 -12 15
-20 15 -8 0 -14 5 -14 10 0 6 -6 10 -13 10 -8 0 -27 11 -43 25 -16 14 -37 25
-46 25 -10 0 -18 5 -18 11 0 6 -6 9 -14 6 -8 -3 -17 1 -20 10 -4 9 -13 13 -22
9 -8 -3 -12 -2 -9 4 3 6 0 10 -7 11 -7 0 -53 2 -102 5 -80 4 -340 57 -421 86
-16 6 -52 15 -80 20 -27 6 -59 14 -70 18 -72 27 -105 31 -217 29 -147 -2 -270
-1 -283 1 -6 1 -13 1 -17 0 -19 -6 -74 -10 -209 -13 -80 -2 -151 -7 -158 -12
-8 -4 -17 -2 -22 6 -6 10 -9 11 -9 2 0 -9 -17 -13 -53 -13 -28 0 -95 -11 -147
-24 -52 -14 -106 -28 -120 -31 -14 -4 -34 -11 -45 -15 -22 -10 -178 -59 -265
-84 -30 -8 -68 -15 -85 -15 -38 2 -145 -29 -145 -42 0 -5 -11 -7 -24 -3 -14 3
-29 0 -39 -10 -8 -9 -25 -16 -36 -16 -11 0 -27 -7 -35 -16 -9 -8 -20 -12 -26
-9 -9 6 -42 -15 -92 -60 -10 -8 -22 -15 -28 -15 -5 0 -10 -4 -10 -8 0 -5 -12
-15 -27 -23 -116 -58 -211 -135 -432 -349 -58 -56 -191 -211 -263 -306 -106
-140 -166 -238 -326 -535 -80 -149 -223 -526 -252 -664 -6 -30 -16 -58 -22
-61 -6 -4 -8 2 -4 17 7 23 7 23 -8 5 -14 -17 -16 -17 -16 -4 0 27 -18 30 -31
7 -9 -18 -9 -25 5 -34 18 -13 21 -52 6 -75 -12 -20 -19 -11 -35 51 -9 35 -11
57 -4 65 12 15 2 42 -22 55 -11 5 -19 15 -19 21 0 7 -10 22 -22 35 l-22 23 27
131 c15 72 39 158 53 192 14 34 48 121 75 192 106 280 155 380 249 505 27 36
78 103 112 150 171 235 214 287 358 433 231 236 455 404 785 588 94 53 186
102 205 111 83 38 251 101 320 120 211 57 265 71 381 93 276 53 521 63 834 35z
m-1895 -24 c0 -2 -7 -7 -16 -10 -8 -3 -12 -2 -9 4 6 10 25 14 25 6z m-181 -19
c44 -22 36 -35 -14 -26 -28 5 -63 5 -88 -1 -23 -5 -45 -10 -49 -10 -15 0 -8
29 10 39 24 14 112 13 141 -2z m119 -13 c-9 -9 -24 -14 -32 -11 -27 11 -17 27
16 27 30 0 31 -1 16 -16z m2990 -9 c14 -14 -9 -13 -39 0 l-34 16 34 -6 c19 -3
37 -7 39 -10z m148 -57 c24 -17 42 -33 40 -35 -4 -5 -87 27 -103 40 -7 5 -13
13 -13 18 0 18 33 8 76 -23z m-2956 -47 c0 -5 -44 -31 -98 -59 -53 -27 -113
-59 -132 -70 -113 -67 -179 -102 -194 -102 -30 0 -8 17 82 66 156 84 177 96
190 106 6 6 12 7 12 2 0 -5 4 -3 8 4 11 17 93 61 115 62 9 0 17 -4 17 -9z
m2855 -111 c3 -6 -1 -7 -9 -4 -18 7 -21 14 -7 14 6 0 13 -4 16 -10z m976 -116
c-19 -8 -36 -12 -39 -9 -6 6 37 24 58 24 8 0 0 -6 -19 -15z m-4761 -9 c0 -2
-10 -9 -22 -15 -22 -11 -22 -10 -4 4 21 17 26 19 26 11z m475 -15 c-3 -5 -99
-85 -213 -177 -114 -92 -208 -170 -210 -175 -2 -4 -9 -8 -15 -8 -32 0 186 196
344 309 80 58 107 73 94 51z m4100 -145 l50 -47 -62 47 c-34 26 -70 56 -80 68
l-18 21 30 -21 c17 -12 53 -43 80 -68z m146 -126 c63 -60 67 -66 28 -39 -53
36 -128 110 -113 110 6 0 44 -32 85 -71z m-5013 -25 c-14 -15 -32 -24 -39 -22
-9 3 -1 13 21 26 46 29 50 28 18 -4z m2863 -1 c186 -84 260 -314 163 -502
-123 -236 -374 -286 -552 -111 -64 63 -110 155 -118 236 -18 175 93 345 254
391 65 18 197 11 253 -14z m2683 -69 c29 -11 17 -20 -20 -16 -25 3 -32 7 -23
13 17 10 23 11 43 3z m-3446 -94 c46 -28 72 -76 72 -133 0 -58 -17 -94 -66
-137 -34 -30 -41 -32 -87 -27 -27 4 -60 13 -72 21 -51 34 -60 163 -15 226 22
31 88 69 120 70 8 0 30 -9 48 -20z m1537 -19 c22 -10 64 -40 93 -67 42 -39 58
-63 78 -117 13 -37 24 -83 24 -102 l0 -34 49 6 c42 5 50 3 64 -17 25 -35 12
-51 -25 -32 -29 14 -34 14 -59 0 -18 -11 -30 -13 -37 -6 -7 7 -24 -10 -50 -50
-45 -65 -88 -106 -139 -130 -18 -9 -33 -19 -33 -23 0 -4 20 -19 45 -34 158
-92 237 -248 221 -439 -3 -45 -9 -93 -12 -107 -5 -22 -2 -27 21 -33 21 -5 26
-12 23 -33 -3 -29 -28 -45 -28 -19 0 9 -5 16 -11 16 -7 0 -17 7 -24 16 -10 14
-13 13 -25 -15 -11 -28 -10 -34 6 -53 19 -21 19 -21 -9 -14 -25 6 -36 1 -77
-38 -62 -58 -145 -111 -195 -125 -56 -15 -161 -14 -228 4 -102 27 -160 63
-217 139 -14 18 -13 18 10 11 14 -4 26 -11 28 -16 6 -14 147 -79 185 -86 28
-4 38 -2 43 11 9 23 59 20 94 -5 40 -30 87 -22 177 31 75 43 155 117 186 173
28 49 20 259 -13 340 -26 64 -83 135 -135 167 -46 28 -220 39 -327 20 -78 -13
-181 -67 -202 -105 -6 -11 -19 -25 -28 -32 -34 -26 -61 -85 -63 -137 -2 -57
-44 -163 -57 -143 -4 7 -8 47 -8 90 0 65 5 91 30 151 50 119 146 218 267 273
57 26 64 37 34 52 -10 6 -21 18 -25 27 -4 10 9 5 35 -15 35 -25 45 -28 62 -19
12 6 75 11 143 12 138 1 154 8 235 99 50 57 60 110 36 182 -38 111 -129 175
-249 175 -132 0 -230 -63 -277 -180 -34 -81 -45 -86 -38 -18 10 102 72 190
171 242 62 33 168 36 231 7z m-3870 -141 c7 -12 -5 -17 -63 -23 -26 -3 -40 -1
-36 5 15 23 88 37 99 18z m2163 -149 c77 -39 126 -91 169 -178 31 -62 36 -83
37 -146 1 -65 -3 -81 -36 -147 -49 -100 -113 -171 -180 -201 -80 -36 -202 -34
-279 4 -80 39 -140 95 -174 163 -27 55 -30 67 -30 169 0 101 2 115 28 167 61
124 221 215 355 203 30 -3 78 -18 110 -34z m-1958 -27 c0 -16 -263 -439 -280
-449 -61 -38 151 334 249 437 16 17 31 23 31 12z m3935 -104 c-3 -5 -10 -10
-16 -10 -5 0 -9 5 -9 10 0 6 7 10 16 10 8 0 12 -4 9 -10z m2303 -71 c44 -43
161 -285 222 -461 57 -161 59 -191 19 -196 -29 -3 -29 -2 -179 348 -126 293
-136 320 -119 331 20 13 22 12 57 -22z m109 18 c33 -21 208 -398 220 -474 5
-32 -5 -52 -27 -53 -16 0 -230 495 -230 531 0 9 20 7 37 -4z m-3804 -104 c39
-20 30 -25 -26 -14 -89 16 -182 -12 -231 -69 -32 -39 -40 -69 -33 -128 3 -26
3 -41 0 -34 -2 6 -9 10 -14 6 -5 -3 -9 21 -9 54 0 48 5 67 28 101 66 98 189
134 285 84z m3252 -188 c73 -151 135 -304 134 -331 0 -21 -13 6 -113 229 -36
81 -82 180 -101 220 -33 66 -34 69 -10 42 15 -16 55 -88 90 -160z m-5799 162
c9 -26 -143 -267 -169 -267 -33 0 41 209 89 251 34 29 72 37 80 16z m2630
-242 c-31 -79 -107 -123 -189 -110 -70 12 -71 21 -2 17 l65 -4 49 48 c37 37
54 64 67 109 l19 60 3 -39 c2 -22 -4 -58 -12 -81z m1598 54 c14 -17 26 -40 26
-51 0 -18 -4 -19 -32 -13 -18 3 -52 9 -76 12 -42 5 -43 6 -26 24 16 17 16 19
1 19 -10 0 -17 4 -17 8 0 18 26 32 61 32 29 0 43 -7 63 -31z m-1276 -96 c2 -9
-7 -13 -26 -13 -21 0 -36 -8 -51 -27 l-20 -28 -1 24 c0 36 28 63 64 59 16 -2
31 -9 34 -15z m-604 -28 c11 -8 15 -15 10 -15 -6 0 -19 7 -30 15 -10 8 -14 14
-9 14 6 0 19 -6 29 -14z m-3022 -45 c-18 -11 -35 -20 -38 -20 -12 0 10 22 30
30 38 15 42 10 8 -10z m4844 2 c38 3 42 1 27 -9 -22 -17 -73 -16 -95 1 -25 18
-22 29 3 15 12 -6 41 -9 65 -7z m-2565 -39 c80 -37 149 -106 189 -188 33 -67
55 -179 47 -231 -3 -19 -3 -34 0 -34 3 0 24 22 48 48 68 75 169 100 266 67 90
-32 149 -116 148 -210 -1 -52 -4 -47 -23 37 -8 34 -59 94 -98 114 -41 21 -153
29 -208 14 -63 -17 -126 -85 -175 -189 -76 -162 -224 -250 -404 -239 -144 9
-250 72 -334 196 -42 61 -48 77 -58 153 -6 46 -7 99 -4 118 30 161 146 296
306 357 93 35 208 30 300 -13z m1347 9 c-13 -15 -70 -12 -75 3 -2 6 16 10 41
10 36 0 43 -2 34 -13z m1366 -62 c47 -42 69 -91 60 -137 -8 -48 -46 -116 -80
-142 -28 -22 -78 -28 -89 -11 -4 6 6 10 22 10 65 0 133 78 133 153 0 65 -82
135 -144 123 -44 -9 -94 -54 -111 -101 -13 -37 -14 -38 -15 -12 0 47 29 95 74
122 58 35 106 33 150 -5z m-1537 -39 c48 -24 89 -70 116 -130 26 -59 18 -142
-22 -228 -31 -66 -82 -112 -148 -134 -72 -24 -189 7 -239 63 -25 26 -64 101
-64 120 0 7 9 -5 19 -27 24 -53 55 -83 104 -105 28 -13 46 -16 58 -9 10 5 48
9 86 9 78 0 125 22 167 79 34 45 40 85 28 164 -18 115 -73 156 -214 160 -131
3 -206 -60 -245 -208 l-13 -50 4 72 c4 83 32 142 93 193 74 61 187 74 270 31z
m-563 -63 c9 -12 16 -31 16 -42 0 -19 0 -19 -14 -1 -11 15 -22 17 -70 12 -31
-3 -56 -3 -56 1 0 3 10 16 22 29 29 31 81 31 102 1z m874 -88 c6 -16 9 -30 7
-30 -5 0 -35 56 -35 65 0 15 19 -8 28 -35z m827 -30 c3 -5 1 -10 -4 -10 -6 0
-11 5 -11 10 0 6 2 10 4 10 3 0 8 -4 11 -10z m1069 -34 c78 -33 146 -135 145
-216 l-1 -45 -10 45 c-26 124 -77 170 -199 178 -67 4 -84 1 -130 -21 -68 -31
-111 -74 -134 -133 -12 -32 -20 -43 -28 -35 -27 27 40 155 103 197 83 55 170
65 254 30z m-799 -16 c3 -5 2 -10 -4 -10 -5 0 -13 5 -16 10 -3 6 -2 10 4 10 5
0 13 -4 16 -10z m-3460 -15 c89 -24 147 -60 211 -134 79 -91 87 -115 88 -241
1 -149 -31 -225 -140 -332 -63 -62 -134 -96 -225 -108 -80 -10 -139 -1 -193
27 l-31 17 40 7 c22 4 57 12 78 17 24 7 64 7 114 1 71 -9 78 -9 112 14 20 13
53 32 74 42 42 20 105 96 132 160 12 27 17 65 16 119 -1 67 -5 86 -29 126 -38
66 -119 137 -173 151 -156 40 -308 46 -380 16 -47 -19 -128 -103 -151 -157
-11 -25 -26 -75 -35 -112 -14 -65 -12 -108 12 -183 4 -14 2 -12 -9 5 -8 14
-20 56 -27 93 -38 212 96 411 318 472 65 18 128 18 198 0z m3435 -56 c63 -28
117 -84 151 -154 24 -49 29 -73 29 -132 0 -39 -4 -75 -10 -78 -6 -4 -10 9 -10
31 0 63 -31 156 -66 201 -19 22 -54 51 -79 63 -39 19 -56 21 -138 17 -52 -3
-110 -12 -130 -21 -43 -17 -137 -108 -137 -131 0 -8 -6 -15 -14 -15 -7 0 -21
-17 -29 -37 l-16 -38 5 45 c10 80 52 157 109 202 85 66 243 89 335 47z m-942
-43 c77 -39 108 -68 117 -111 l7 -30 -21 32 c-53 83 -109 113 -213 113 -72 0
-104 -12 -150 -58 -21 -20 -38 -30 -38 -23 0 8 15 28 34 45 80 76 158 86 264
32z m2546 -12 c12 -30 6 -64 -14 -81 -11 -10 -20 -21 -20 -26 0 -5 6 -4 14 2
12 10 18 7 31 -18 15 -30 15 -31 -4 -31 -11 0 -23 5 -26 10 -3 6 -14 10 -25
10 -15 0 -19 9 -22 51 -1 28 0 56 4 62 6 9 8 8 8 -1 0 -7 5 -10 10 -7 6 3 10
15 10 26 0 23 25 26 34 3z m436 -123 c-5 -11 -15 -23 -22 -27 -7 -5 -8 -2 -3
7 21 37 44 55 25 20z m-3284 -18 c-10 -10 -19 5 -10 18 6 11 8 11 12 0 2 -7 1
-15 -2 -18z m-111 -104 c52 -7 63 -5 82 13 l22 20 31 -35 c21 -24 50 -42 92
-56 74 -25 103 -26 151 -6 45 19 63 19 70 1 4 -10 1 -13 -7 -10 -15 6 -32 -13
-22 -23 9 -10 76 25 76 39 0 6 3 9 6 5 7 -7 -34 -77 -54 -93 -12 -8 -12 -15
-3 -32 6 -12 16 -22 21 -22 6 0 10 -7 10 -15 0 -23 -19 -18 -29 8 -8 20 -76
55 -87 44 -7 -7 152 -137 167 -137 10 0 10 -3 1 -12 -9 -9 -18 -6 -39 13 -160
146 -490 246 -653 199 -19 -6 -66 -17 -103 -25 -70 -14 -179 -65 -255 -117
-49 -34 -91 -32 -51 2 l24 19 -23 1 c-15 0 -26 -7 -29 -19 -3 -11 -11 -22 -18
-25 -18 -6 -29 25 -13 36 9 6 7 8 -7 4 -28 -8 -41 4 -49 44 -5 32 -3 37 23 53
36 21 41 21 41 1 0 -13 6 -15 28 -9 46 11 92 37 103 57 10 19 66 58 83 58 5 0
-3 -11 -18 -25 -15 -14 -24 -30 -21 -35 8 -13 41 -13 66 1 19 10 19 12 4 23
-10 7 -14 18 -9 29 7 18 18 20 49 8 12 -5 39 -3 65 5 25 8 66 14 92 14 38 0
50 4 58 21 11 20 12 20 38 3 15 -10 54 -21 87 -25z m2271 -9 c-16 -25 -46 -50
-79 -67 -44 -23 -64 -28 -132 -28 -85 0 -139 19 -179 64 -28 31 -15 34 27 6
20 -14 50 -25 69 -25 l33 0 -25 21 c-21 17 -21 19 -4 10 12 -6 60 -13 105 -15
70 -4 91 -1 127 16 24 11 50 31 59 44 9 14 18 22 21 20 3 -3 -7 -24 -22 -46z
m-5876 22 c0 -5 -13 -7 -30 -4 -19 3 -43 -3 -65 -17 -38 -22 -49 -13 -12 12
23 17 107 23 107 9z m4393 -56 c50 -21 98 -78 107 -126 24 -130 -83 -236 -201
-201 -58 17 -47 26 26 23 53 -3 71 0 100 18 53 33 69 62 62 116 -16 142 -179
190 -291 86 -22 -21 -26 -22 -18 -7 43 84 138 124 215 91z m-1702 -76 c20 -6
42 -16 47 -23 9 -10 -1 -12 -51 -9 -46 3 -76 -1 -116 -16 -51 -20 -52 -20 -36
-2 18 19 92 60 110 60 6 0 26 -5 46 -10z m2416 -47 c-66 -126 -264 -213 -383
-168 -46 17 -124 78 -124 97 0 5 9 0 20 -10 49 -46 171 -61 263 -32 16 6 27 5
27 -1 0 -15 28 -11 68 10 40 21 132 112 132 132 0 7 3 10 6 7 3 -4 -1 -19 -9
-35z m-3072 -7 c19 -8 35 -19 35 -23 0 -9 -138 -8 -147 1 -6 5 53 35 70 36 4
0 23 -7 42 -14z m1649 -50 c117 -30 181 -64 259 -135 50 -47 127 -148 127
-168 0 -3 -37 33 -82 80 -146 151 -281 205 -498 196 -51 -1 -39 -4 54 -9 112
-8 123 -10 203 -50 117 -58 225 -161 275 -262 69 -138 87 -217 72 -305 -8 -46
-8 -44 -15 47 -5 78 -13 110 -44 183 -31 73 -50 101 -109 161 -119 121 -249
180 -401 180 -172 1 -303 -52 -408 -164 -37 -38 -76 -88 -87 -109 -29 -59 -64
-73 -38 -17 9 22 9 29 -1 35 -17 11 4 25 24 17 9 -3 12 0 8 10 -7 20 133 164
195 201 23 14 42 26 42 28 0 7 -75 -18 -99 -33 -14 -8 -59 -47 -98 -86 -103
-99 -93 -65 12 44 49 52 188 134 255 150 25 6 59 15 75 20 61 17 180 11 279
-14z m433 -3 c-15 -16 -17 -16 -17 -1 0 9 6 18 13 21 20 7 22 -2 4 -20z m72
-5 c0 -30 -1 -31 -9 -10 -5 12 -17 22 -25 22 -9 0 -13 5 -10 10 3 6 15 10 26
10 15 0 19 -7 18 -32z m-1295 -28 c8 0 19 7 26 15 14 17 25 12 25 -13 0 -12
10 -18 33 -20 56 -6 32 -27 -25 -24 -41 3 -53 0 -62 -15 -9 -16 -10 -14 -11
11 l0 28 -20 -23 c-16 -20 -19 -21 -20 -7 0 9 4 19 9 23 5 3 13 20 17 38 7 27
9 29 12 10 2 -13 9 -23 16 -23z m-2334 -50 c12 -8 11 -10 -7 -10 -12 0 -25 5
-28 10 -8 13 15 13 35 0z m565 -20 c10 -11 13 -20 7 -20 -6 0 -16 9 -22 20 -6
11 -9 20 -7 20 2 0 12 -9 22 -20z m1835 -19 c0 -4 -11 -20 -25 -35 -14 -15
-25 -34 -25 -42 0 -7 -4 -14 -10 -14 -5 0 -10 -5 -10 -10 0 -6 -15 -32 -32
-58 -22 -32 -39 -47 -50 -44 -27 5 -21 41 12 72 29 27 40 60 20 60 -14 0 -13
27 1 36 7 4 16 -1 21 -10 5 -9 16 -16 23 -16 18 0 20 17 3 22 -7 3 -3 15 12
36 19 25 27 29 42 21 10 -5 18 -13 18 -18z m1236 3 c0 -10 6 -30 13 -43 12
-21 11 -23 -4 -18 -9 4 -21 7 -26 7 -5 0 -9 11 -9 25 0 15 -7 28 -17 32 -15 6
-15 7 3 14 27 11 39 5 40 -17z m1303 -3 c43 -22 88 -71 96 -104 14 -58 21
-114 17 -127 -3 -8 -11 14 -18 49 -23 112 -67 151 -173 151 -117 0 -174 -33
-209 -122 l-12 -33 4 38 c17 142 163 215 295 148z m-819 -46 c15 -18 14 -18
-28 -6 -40 12 -75 1 -116 -37 -17 -16 -25 -20 -19 -9 28 53 134 87 163 52z
m-2556 -7 c-8 -20 -80 -68 -112 -74 -30 -6 -103 23 -118 47 -4 6 -3 10 2 7 76
-37 89 -40 124 -29 20 6 52 22 71 35 41 30 39 29 33 14z m194 -42 c68 -35 115
-108 127 -195 10 -71 -10 -60 -25 15 -14 68 -58 115 -121 133 -71 19 -162 28
-196 19 -57 -15 -107 -89 -141 -208 l-10 -35 -1 45 c-2 79 51 165 129 209 68
39 180 47 238 17z m1912 3 c0 -6 -4 -7 -10 -4 -5 3 -10 11 -10 16 0 6 5 7 10
4 6 -3 10 -11 10 -16z m-3686 -66 c-4 -32 -10 -67 -15 -78 -7 -18 -8 -18 -10
5 -5 63 -4 80 8 84 7 3 13 15 13 26 0 11 2 20 5 20 3 0 2 -26 -1 -57z m5498
23 c70 -25 140 -73 160 -109 10 -19 7 -18 -26 6 -60 46 -114 60 -224 55 -81
-3 -107 -8 -152 -30 -64 -31 -131 -96 -159 -153 -19 -39 -20 -39 -21 -12 0 36
70 157 111 191 92 78 191 94 311 52z m-3355 -8 c28 -26 30 -43 4 -28 -31 16
-79 12 -100 -9 -28 -28 -38 -88 -20 -120 19 -34 51 -38 93 -11 42 25 58 10 19
-18 -32 -23 -83 -35 -99 -24 -55 37 -42 175 20 213 40 24 54 24 83 -3z m1816
7 c-3 -9 -8 -14 -10 -11 -3 3 -2 9 2 15 9 16 15 13 8 -4z m-223 -14 c0 -5 6
-16 13 -23 21 -23 40 -66 32 -77 -10 -18 -22 -4 -29 34 -4 19 -10 35 -14 35
-4 0 -13 9 -20 20 -10 17 -10 20 3 20 8 0 15 -4 15 -9z m-2422 -67 c12 -8 22
-20 22 -26 0 -6 -10 -2 -22 9 -13 11 -30 23 -38 26 -13 5 -13 6 0 6 9 1 26 -6
38 -15z m2242 1 c0 -8 -4 -15 -10 -15 -5 0 -10 7 -10 15 0 8 5 15 10 15 6 0
10 -7 10 -15z m610 -15 c-6 -12 -9 -24 -7 -27 3 -3 35 10 71 27 58 29 73 32
122 27 112 -12 183 -88 190 -204 l4 -68 -17 64 c-13 46 -28 74 -56 101 -70 71
-194 90 -284 42 -23 -11 -44 -18 -47 -15 -3 4 -6 2 -7 -3 -2 -28 -9 -48 -23
-63 -8 -9 -19 -28 -25 -41 l-10 -25 0 25 c-1 14 6 36 16 49 16 24 16 24 -11
17 -25 -6 -24 -4 14 30 22 20 48 50 57 65 19 33 30 32 13 -1z m509 -50 c1 -13
0 -13 -9 0 -5 8 -9 24 -9 35 l0 20 9 -20 c5 -11 9 -27 9 -35z m-3616 5 c73
-19 99 -36 142 -95 30 -41 62 -136 50 -148 -2 -2 -13 13 -24 35 -31 58 -64 95
-91 99 -14 2 -45 11 -70 20 -25 9 -75 19 -113 22 -90 6 -142 -14 -201 -80 -49
-54 -65 -96 -67 -173 -1 -48 -1 -49 -10 -18 -13 46 4 143 35 195 32 55 69 90
124 119 80 41 137 47 225 24z m-1263 -11 c0 -8 -5 -12 -10 -9 -6 4 -8 11 -5
16 9 14 15 11 15 -7z m-437 -1 c-7 -2 -19 -2 -25 0 -7 3 -2 5 12 5 14 0 19 -2
13 -5z m1892 -3 c3 -5 1 -10 -4 -10 -6 0 -11 5 -11 10 0 6 2 10 4 10 3 0 8 -4
11 -10z m55 5 c0 -2 -10 -9 -22 -15 -22 -11 -22 -10 -4 4 21 17 26 19 26 11z
m2680 -42 c0 -2 -13 4 -30 14 -16 9 -30 21 -30 25 0 5 14 -1 30 -14 17 -12 30
-23 30 -25z m-1603 2 c-15 -14 -23 -20 -18 -14 5 6 7 18 4 27 -4 10 -2 13 5 8
6 -3 14 -1 17 5 4 5 10 8 13 4 3 -3 -6 -17 -21 -30z m2663 25 c0 -18 -65 -83
-97 -96 -18 -8 -62 -14 -98 -14 -75 0 -132 23 -158 64 -25 37 -21 43 11 14 28
-26 112 -48 181 -48 48 1 115 32 136 64 18 28 25 32 25 16z m-2803 -27 c-9 -9
-20 -13 -24 -9 -4 4 -1 11 7 16 25 16 35 11 17 -7z m1796 -10 c-7 -2 -21 -2
-30 0 -10 3 -4 5 12 5 17 0 24 -2 18 -5z m-4063 -65 c0 -5 -7 -8 -15 -8 -8 0
-15 4 -15 9 0 5 -3 17 -7 26 -5 16 -4 15 15 -1 12 -10 22 -22 22 -26z m3801
15 c-12 -20 -14 -14 -5 12 4 9 9 14 11 11 3 -2 0 -13 -6 -23z m164 -17 c50
-21 43 -32 -20 -32 -30 1 -55 4 -55 8 0 3 -3 13 -6 22 -8 21 33 22 81 2z
m1782 -18 c-3 -8 -6 -5 -6 6 -1 11 2 17 5 13 3 -3 4 -12 1 -19z m-3858 -38
c-28 -50 -100 -107 -147 -116 -44 -8 -155 2 -184 17 -30 15 -68 50 -68 62 0 6
9 2 19 -7 32 -29 92 -45 171 -46 70 0 79 3 128 35 29 20 62 51 75 70 30 46 34
36 6 -15z m3208 -12 c-3 -8 -6 -5 -6 6 -1 11 2 17 5 13 3 -3 4 -12 1 -19z
m-3052 -8 c3 -6 -1 -7 -9 -4 -18 7 -21 14 -7 14 6 0 13 -4 16 -10z m362 -27
c-3 -10 -5 -4 -5 12 0 17 2 24 5 18 2 -7 2 -21 0 -30z m3331 -15 c-5 -24 -20
-62 -34 -86 -28 -48 -124 -124 -182 -143 -58 -20 -190 -18 -233 4 -74 37 -151
119 -172 182 -5 16 -3 15 11 -5 36 -52 67 -83 104 -106 33 -21 49 -24 111 -23
40 1 97 -1 128 -6 55 -7 59 -6 112 29 68 45 113 95 139 153 10 24 20 43 22 43
2 0 0 -19 -6 -42z m-835 -2 c34 -14 60 -40 71 -70 4 -12 -4 -7 -23 13 -24 26
-36 31 -76 31 -25 0 -55 -5 -67 -11 -32 -17 -36 1 -5 27 32 27 54 30 100 10z
m-1083 -5 c0 -6 -4 -13 -10 -16 -5 -3 -10 1 -10 9 0 9 5 16 10 16 6 0 10 -4
10 -9z m-1410 -27 c0 -8 -5 -12 -10 -9 -6 4 -8 11 -5 16 9 14 15 11 15 -7z
m1515 -15 c22 -14 46 -20 65 -17 33 5 38 -3 16 -22 -12 -9 -24 -7 -58 8 -49
23 -89 51 -71 52 6 0 28 -9 48 -21z m605 14 c0 -20 -57 -75 -102 -97 -92 -46
-201 -25 -268 50 -17 19 -18 24 -5 13 34 -26 96 -38 187 -35 75 2 93 6 128 29
22 15 40 32 40 37 0 6 5 10 10 10 6 0 10 -3 10 -7z m-3969 -13 c17 -10 49 -59
49 -76 0 -4 -13 5 -29 20 -25 24 -37 28 -85 27 -31 0 -61 -3 -66 -6 -21 -13
-9 13 13 28 25 18 89 22 118 7z m1067 -26 c43 -17 97 -67 118 -106 22 -42 17
-41 -32 12 -25 26 -60 55 -79 64 -42 20 -115 21 -162 1 -32 -13 -34 -13 -23 0
13 15 90 43 123 44 10 1 34 -6 55 -15z m-362 -38 c-9 -38 -91 -141 -130 -165
-70 -44 -216 -47 -271 -8 -17 13 -17 14 11 16 182 8 231 16 273 45 46 32 99
98 108 136 4 14 8 19 11 12 2 -7 1 -23 -2 -36z m2284 -55 c-7 -31 -25 -84 -41
-119 -15 -34 -25 -70 -22 -78 3 -8 -1 -20 -9 -27 -19 -15 -31 -47 -18 -47 6 0
15 9 22 20 12 18 13 18 32 2 18 -16 19 -16 12 11 -5 20 -3 27 4 22 6 -4 18 -1
26 6 19 16 30 4 13 -14 -8 -7 -25 -30 -39 -50 -26 -38 -64 -55 -84 -38 -9 8
-19 3 -34 -19 -27 -37 -28 -54 -1 -81 11 -11 18 -24 14 -27 -4 -4 -12 1 -19
11 -22 29 -62 18 -78 -23 -3 -8 -19 -23 -36 -32 -29 -17 -30 -17 -35 2 -5 21
10 42 45 61 11 6 17 13 14 16 -9 10 -116 -47 -116 -62 0 -17 -16 -20 -25 -6
-11 19 -142 -11 -161 -36 -7 -11 -16 -13 -25 -8 -7 5 -34 10 -59 10 -65 2
-119 14 -170 38 -24 11 -59 20 -77 20 -28 -1 -33 2 -28 17 4 13 0 20 -14 25
-11 3 -50 44 -88 91 -57 71 -72 84 -90 79 -13 -3 -23 -1 -23 5 0 5 7 10 16 10
13 0 11 8 -10 46 -39 70 -31 73 17 8 24 -33 72 -85 108 -117 65 -59 165 -124
176 -113 3 3 -6 10 -21 16 -15 6 -53 30 -85 54 -117 91 -188 191 -215 309 -10
43 -15 81 -12 84 3 4 6 -2 6 -13 1 -30 44 -128 83 -187 53 -79 113 -134 192
-172 99 -49 174 -66 290 -66 159 -1 293 52 408 160 55 52 77 83 113 156 24 50
44 102 45 115 0 14 3 19 6 11 3 -7 0 -39 -7 -70z m2743 39 c19 -17 -38 -467
-79 -619 -93 -348 -165 -549 -274 -769 -86 -175 -197 -365 -223 -383 -5 -4 -6
-12 -3 -18 4 -6 4 -10 -1 -9 -5 2 -65 -60 -133 -137 -286 -321 -505 -514 -810
-715 -85 -56 -397 -216 -525 -268 -211 -87 -333 -124 -570 -171 -234 -46 -346
-56 -625 -56 -216 0 -278 4 -405 23 -258 40 -443 88 -687 178 -150 55 -497
222 -617 297 -146 90 -349 251 -576 456 -76 68 -278 312 -381 459 -265 378
-461 839 -548 1287 -19 100 -46 307 -46 357 l0 38 60 0 60 0 -5 28 c-5 23 -4
24 4 5 7 -14 22 -23 51 -28 23 -4 43 -12 46 -18 2 -7 15 -91 28 -188 75 -537
225 -922 534 -1378 212 -313 607 -664 922 -821 206 -103 391 -180 430 -180 13
0 19 -4 14 -11 -5 -8 2 -10 22 -6 15 3 39 1 52 -4 15 -6 29 -6 36 0 15 12 88
17 104 7 7 -4 12 -2 12 3 0 6 5 11 11 11 5 0 8 -4 4 -9 -10 -17 12 -21 25 -5
7 8 20 12 27 9 8 -3 21 2 29 10 15 14 59 15 81 2 6 -4 13 0 17 8 3 8 1 15 -4
15 -6 0 -10 32 -10 73 0 84 24 137 79 174 62 42 153 21 220 -51 60 -66 83
-210 39 -245 -21 -18 -21 -18 11 -18 24 0 30 4 26 15 -4 12 -3 13 10 2 12 -10
15 -10 15 3 0 9 16 19 40 25 34 8 44 7 64 -9 17 -13 26 -15 28 -7 3 7 29 12
68 13 55 1 65 4 73 23 6 12 17 22 26 22 14 0 14 -2 1 -10 -10 -7 35 -10 145
-8 88 1 175 -2 193 -6 22 -5 32 -4 32 4 0 7 7 10 16 6 9 -3 31 3 49 14 28 17
37 19 58 9 31 -14 77 -4 77 16 0 19 16 19 24 0 3 -8 11 -15 18 -15 9 0 8 3 -2
10 -18 11 -19 11 43 15 26 1 50 -1 52 -5 6 -9 99 11 130 27 11 6 33 11 49 11
18 0 35 7 42 18 7 11 18 24 24 29 6 6 19 18 28 29 53 58 135 86 182 63 20 -10
30 -12 30 -4 0 6 6 3 13 -7 11 -15 16 -16 47 -2 19 8 38 18 43 22 4 4 18 9 30
11 12 2 31 7 42 12 40 19 106 38 158 45 46 7 216 129 345 246 263 240 477 529
655 885 153 306 234 580 288 975 13 91 27 168 32 171 4 3 54 9 110 13 56 3
118 10 137 15 38 8 150 3 163 -9z m-6423 -3 c0 -20 -45 -38 -59 -24 -18 18
-13 25 14 19 15 -2 25 0 25 7 0 6 5 11 10 11 6 0 10 -6 10 -13z m3900 -16 c0
-12 -20 -25 -27 -18 -7 7 6 27 18 27 5 0 9 -4 9 -9z m-1615 -52 c5 -5 -5 -9
-29 -9 -41 0 -68 -11 -105 -44 l-24 -21 19 34 c30 53 104 74 139 40z m2795 0
c-15 -27 -69 -59 -102 -59 -41 0 -78 20 -78 43 0 19 1 19 18 4 28 -25 92 -22
133 7 42 30 42 30 29 5z m-307 -4 c85 -22 130 -49 200 -118 53 -51 68 -75 91
-137 43 -118 47 -155 27 -247 -11 -51 -29 -99 -49 -130 -50 -78 -152 -169
-229 -206 -61 -28 -77 -32 -153 -31 -100 1 -179 26 -242 76 -59 46 -126 141
-144 205 -24 84 -4 85 42 2 41 -76 87 -128 155 -175 37 -25 55 -30 143 -37
139 -11 154 -10 211 18 107 53 197 151 230 253 21 64 17 139 -14 230 -59 172
-164 231 -396 220 -100 -5 -129 -17 -223 -101 -27 -24 -58 -50 -69 -58 -35
-25 -72 -103 -88 -184 l-15 -80 4 95 c3 80 8 107 36 173 59 142 115 191 259
228 84 22 151 23 224 4z m-653 -44 c-16 -31 -60 -61 -89 -61 -30 0 -102 41
-84 47 7 3 23 -3 35 -11 36 -26 80 -20 113 14 33 35 40 38 25 11z m-3416 -15
c-9 -22 -60 -39 -98 -32 -51 10 -53 24 -2 19 28 -4 53 0 72 10 36 20 34 20 28
3z m1561 -22 c9 -48 0 -54 -32 -21 -27 26 -27 27 -8 42 29 21 32 19 40 -21z
m1606 -20 c-12 -15 -21 -35 -21 -45 0 -10 -4 -21 -10 -24 -5 -3 -10 -11 -10
-17 0 -7 9 -2 20 10 27 29 37 28 16 0 -28 -39 -29 -48 -11 -68 10 -11 13 -20
7 -20 -7 0 -23 19 -38 43 -14 23 -38 52 -52 64 -19 16 -22 23 -11 23 8 0 20
-5 26 -11 14 -14 32 -4 43 27 8 20 33 38 58 43 2 1 -6 -11 -17 -25z m49 -3
c-14 -27 -30 -36 -30 -17 0 8 8 20 18 25 23 14 24 14 12 -8z m-1758 -30 c27
-20 89 -31 110 -20 14 7 24 7 34 -1 7 -7 23 -10 34 -7 11 3 22 1 25 -3 7 -12
-58 -25 -121 -24 -64 0 -108 18 -123 50 -13 30 -5 52 12 32 7 -8 20 -20 29
-27z m-425 -51 c80 15 93 7 22 -14 -66 -20 -92 -20 -129 -1 -40 21 -38 26 6
13 26 -7 56 -6 101 2z m-439 -40 c28 -17 52 -54 52 -80 0 -4 -14 5 -31 21 -38
35 -62 42 -129 37 -56 -3 -63 4 -22 26 38 21 91 19 130 -4z m2842 -10 c40 -28
69 -72 75 -112 l5 -33 -18 40 c-11 22 -36 56 -57 74 -34 29 -42 32 -79 27 -23
-4 -63 -18 -90 -31 l-48 -25 28 34 c18 21 35 33 45 30 9 -2 22 3 30 12 17 21
68 13 109 -16z m1347 -1 c108 -41 172 -129 181 -251 4 -55 1 -74 -18 -112 -22
-47 -92 -116 -145 -143 -47 -25 -195 -30 -250 -8 -56 21 -100 57 -122 98 -15
29 -13 29 35 -15 28 -25 67 -53 86 -62 48 -23 146 -21 177 2 13 10 46 29 73
42 58 27 113 81 133 127 19 46 16 131 -6 180 -35 76 -145 129 -245 118 -89
-10 -146 -32 -191 -76 -42 -41 -55 -47 -55 -28 0 28 74 99 133 129 71 36 115
36 214 -1z m-3039 -11 c21 -21 13 -25 -40 -21 -56 4 -53 6 -153 -65 -26 -18
-50 -30 -53 -27 -10 9 59 63 122 95 63 32 104 38 124 18z m1339 -42 c-4 -10
-1 -13 9 -9 7 3 14 2 14 -2 0 -12 -82 -106 -88 -100 -3 3 7 18 21 33 29 30 33
42 17 42 -6 0 -15 -11 -20 -24 -5 -14 -19 -30 -30 -36 -14 -8 -20 -18 -17 -30
3 -11 -1 -21 -9 -24 -8 -3 -14 -1 -14 4 0 6 -4 10 -9 10 -5 0 -8 -7 -7 -15 0
-8 -19 -25 -44 -37 -53 -27 -56 -41 -8 -49 45 -7 97 -38 116 -69 l16 -25 -24
21 c-39 34 -65 44 -112 44 -52 0 -114 -27 -148 -65 -37 -40 -77 -67 -116 -75
-18 -4 -32 -4 -29 0 3 5 18 11 34 15 35 7 57 30 66 68 6 23 4 27 -14 27 -12 0
-35 -10 -51 -22 -23 -17 -33 -19 -42 -10 -19 19 -56 14 -68 -8 -9 -17 -21 -20
-71 -20 -44 0 -61 4 -65 15 -6 16 -35 20 -48 8 -4 -4 -40 -6 -81 -4 -69 3 -74
1 -80 -21 -11 -34 -72 -106 -105 -123 -16 -8 -48 -14 -72 -14 -24 1 -32 3 -18
5 92 14 130 43 145 111 10 50 -1 69 -63 108 -62 39 -98 45 -105 18 -3 -10 -5
-3 -6 15 0 17 -5 32 -11 32 -5 0 -10 9 -10 20 0 22 -4 22 114 -6 60 -15 113
-42 136 -69 7 -8 15 -13 19 -10 4 2 48 -3 97 -11 88 -14 137 -12 162 9 9 7 16
7 24 -1 17 -17 48 -15 48 3 0 8 4 15 9 15 5 0 14 14 21 31 11 25 11 32 1 39
-9 5 -4 8 13 8 14 0 26 -4 26 -9 0 -5 -4 -9 -9 -9 -11 0 -35 -69 -27 -77 8 -8
149 16 161 28 5 5 18 9 30 9 29 0 130 62 130 80 0 8 5 15 10 16 22 2 45 17 45
30 0 8 6 14 14 14 7 0 24 14 37 32 46 60 100 101 86 64z m-1204 -74 c36 -37
61 -102 38 -102 -6 0 -11 7 -11 16 0 10 -6 14 -15 10 -11 -4 -22 9 -40 44 -41
81 -31 92 28 32z m-622 -71 c-17 -26 -39 -55 -49 -65 -26 -22 -102 -31 -147
-16 -47 16 -104 66 -121 107 -21 50 -16 63 8 18 40 -77 86 -105 172 -105 40 0
60 6 86 25 41 30 69 72 71 105 2 24 2 24 6 2 3 -14 -7 -41 -26 -71z m1920 52
c-12 -20 -14 -14 -5 12 4 9 9 14 11 11 3 -2 0 -13 -6 -23z m-2940 -8 c39 -21
79 -73 79 -103 l0 -27 -20 32 c-24 40 -48 53 -96 53 -21 0 -53 5 -71 12 -31
11 -35 10 -69 -23 -37 -34 -37 -28 0 25 40 55 108 66 177 31z m644 -36 c69
-61 82 -121 43 -199 -40 -79 -130 -113 -198 -75 -24 14 -24 14 12 8 58 -9 106
5 148 43 64 58 66 130 7 189 -40 40 -96 50 -163 30 -26 -8 -50 -13 -52 -10
-11 11 79 44 120 45 39 0 54 -5 83 -31z m1925 21 c0 -5 -4 -10 -10 -10 -5 0
-10 5 -10 10 0 6 5 10 10 10 6 0 10 -4 10 -10z m690 -60 c-32 -78 -146 -133
-230 -110 -38 10 -100 68 -100 93 0 7 11 -2 25 -19 32 -41 74 -58 131 -51 56
6 119 48 154 101 27 41 39 32 20 -14z m-2903 15 c-33 -29 -101 -34 -133 -10
-18 14 -17 14 9 5 41 -15 67 -12 107 9 47 25 50 25 17 -4z m1028 -51 c19 -8
45 -14 59 -14 14 0 28 -4 31 -10 10 -17 -37 -11 -84 10 -24 11 -59 20 -79 20
-36 0 -36 0 -14 16 12 8 22 25 23 37 0 18 3 16 15 -11 9 -21 27 -38 49 -48z
m1035 51 c-7 -9 -15 -13 -19 -10 -3 3 1 10 9 15 21 14 24 12 10 -5z m-818 -61
c-13 -9 -42 -18 -65 -20 -32 -3 -37 -2 -22 5 11 5 32 10 47 10 15 1 30 6 33
11 3 6 11 10 18 10 6 0 1 -7 -11 -16z m-1542 -93 c-5 -11 -15 -23 -21 -27 -6
-3 -3 5 6 20 20 30 30 35 15 7z m-221 -47 c22 -11 51 -15 95 -12 47 2 62 0 55
-8 -26 -31 -126 -21 -171 16 -28 24 -21 25 21 4z m3274 2 c41 -17 93 -76 102
-115 8 -37 -17 -118 -46 -149 -26 -29 -92 -62 -122 -62 -34 0 -93 48 -113 93
-21 45 -14 58 11 20 31 -46 57 -62 103 -63 49 0 113 29 136 62 36 51 6 157
-50 178 -65 25 -156 5 -188 -42 -13 -17 -16 -19 -16 -6 0 21 47 77 74 88 32
13 73 12 109 -4z m-2933 -38 c94 -34 150 -119 150 -227 0 -84 -23 -134 -83
-187 -122 -108 -296 -75 -371 70 -49 95 -25 214 61 298 27 26 59 51 73 57 27
11 129 4 170 -11z m1219 7 c34 -17 111 -102 111 -121 0 -21 -5 -17 -35 26 -36
52 -65 70 -128 76 -90 10 -105 8 -149 -21 l-43 -28 25 27 c44 48 163 71 219
41z m865 -43 c27 -10 56 -28 64 -40 13 -20 9 -19 -38 10 -44 27 -63 33 -111
33 -31 0 -55 3 -52 8 8 13 87 7 137 -11z m-1348 -59 c76 -36 121 -82 164 -168
32 -63 35 -76 34 -155 -1 -108 -22 -157 -97 -231 -81 -79 -152 -112 -241 -113
-43 0 -92 7 -124 18 -65 22 -147 95 -187 168 -28 49 -30 61 -30 153 0 89 4
107 29 162 79 173 281 247 452 166z m1891 -20 c-20 -38 -66 -83 -85 -83 -9 0
2 15 26 35 22 20 47 52 54 72 7 20 14 29 16 20 2 -9 -3 -28 -11 -44z m-283
-41 c20 -17 43 -32 51 -32 8 0 15 -4 15 -10 0 -14 -6 -13 -46 6 -34 16 -84 86
-84 115 1 8 7 0 14 -16 7 -17 30 -45 50 -63z m366 -81 c5 -11 38 -36 71 -57
34 -20 88 -59 119 -85 53 -43 61 -56 84 -126 59 -176 8 -361 -128 -463 -137
-104 -272 -116 -427 -38 -81 40 -130 93 -177 186 -34 71 -37 83 -40 183 -4 96
-2 113 18 154 12 26 29 49 36 52 8 3 14 10 14 16 0 5 14 32 31 59 39 60 115
107 174 109 22 0 72 7 110 14 96 18 103 18 115 -4z m-1391 -29 c-15 -43 -67
-88 -124 -107 -53 -17 -99 -14 -145 10 -27 15 -90 72 -90 82 0 4 12 -5 28 -19
15 -14 42 -33 61 -43 71 -36 213 4 253 71 24 41 30 43 17 6z m396 7 c54 -20
125 -71 125 -90 0 -5 -19 5 -42 22 -40 29 -46 30 -98 23 -30 -4 -83 -8 -116
-8 -53 -1 -68 -6 -109 -35 -58 -42 -48 -14 16 43 76 70 130 80 224 45z m436
-27 c-38 -74 -143 -112 -211 -77 -34 18 -80 62 -80 77 0 5 14 1 31 -7 16 -9
68 -19 114 -22 l84 -6 38 39 c21 22 39 38 41 38 2 -1 -6 -20 -17 -42z m1223
17 c14 -11 26 -27 26 -35 0 -17 -8 -17 -40 1 -14 8 -46 14 -72 15 -27 0 -48 4
-48 8 0 36 92 44 134 11z m447 -9 c32 -17 22 -26 -28 -26 -43 1 -48 -2 -51
-22 -7 -50 42 -69 78 -30 11 12 20 16 20 10 0 -17 -37 -52 -56 -52 -36 0 -54
20 -54 60 0 56 44 85 91 60z m-1963 -115 c-3 -3 -9 2 -12 12 -6 14 -5 15 5 6
7 -7 10 -15 7 -18z m278 -39 c3 -14 3 -30 -1 -35 -10 -17 -56 -13 -77 6 -20
18 -24 33 -8 33 6 0 10 -7 10 -16 0 -11 8 -14 28 -12 21 2 27 8 26 26 -1 30
14 28 22 -2z m1622 -90 c51 -55 67 -108 66 -211 -1 -94 -22 -151 -80 -214 -61
-68 -104 -86 -204 -85 -90 1 -158 23 -194 63 -29 32 -14 43 24 18 51 -34 95
-47 164 -47 106 0 204 60 250 152 34 68 37 187 7 247 -20 38 -83 101 -101 101
-6 0 -10 5 -10 10 0 24 41 6 78 -34z m-2235 -69 c29 -14 68 -27 88 -31 43 -8
130 9 182 35 46 24 48 9 3 -26 -69 -52 -191 -53 -279 -2 -45 26 -97 79 -97 99
0 5 11 -4 25 -21 14 -16 49 -41 78 -54z m1661 26 c-14 -10 -20 -11 -23 -2 -2
7 5 18 15 26 14 10 20 11 23 2 2 -7 -5 -18 -15 -26z m-1957 -54 c57 -21 113
-100 112 -159 0 -22 -2 -20 -21 15 -42 83 -84 107 -190 109 -65 2 -75 11 -38
31 30 17 98 19 137 4z m-292 -71 c-58 -105 -57 -194 3 -260 35 -39 108 -82
123 -72 4 2 39 11 78 19 91 19 147 54 172 108 l20 42 -5 -35 c-14 -80 -108
-168 -189 -177 -85 -10 -205 58 -239 135 -34 77 -15 202 40 265 23 26 23 21
-3 -25z m1115 22 c12 -8 9 -10 -13 -10 -16 0 -26 4 -22 10 8 12 16 12 35 0z
m-391 -40 c42 -12 96 -62 122 -112 38 -74 19 -171 -46 -235 -40 -41 -45 -43
-101 -43 -68 0 -107 19 -148 73 -36 48 -33 51 17 16 33 -23 59 -32 105 -36 56
-5 66 -3 100 21 39 27 82 90 82 120 0 26 -29 77 -63 110 -26 27 -38 31 -96 34
-50 3 -79 -1 -118 -17 -29 -11 -53 -17 -53 -13 0 20 37 56 74 73 47 21 76 23
125 9z m391 -10 c0 -5 -7 -10 -15 -10 -8 0 -15 5 -15 10 0 6 7 10 15 10 8 0
15 -4 15 -10z m-750 -44 c0 -17 -14 -29 -23 -20 -8 8 3 34 14 34 5 0 9 -6 9
-14z m755 -46 c-3 -5 -18 -10 -33 -9 l-27 1 25 8 c35 11 42 11 35 0z m148
-151 c226 -76 353 -365 251 -573 -59 -120 -188 -221 -312 -244 -148 -27 -310
65 -389 222 -32 61 -37 83 -41 157 -7 143 29 252 111 337 106 109 245 146 380
101z m1003 -29 c88 -48 138 -103 158 -171 32 -106 15 -191 -52 -257 -65 -66
-137 -95 -237 -96 -75 -1 -88 2 -151 34 -53 27 -76 46 -101 83 -32 48 -58 138
-50 179 4 29 11 13 25 -64 21 -114 113 -181 246 -182 110 -1 190 27 253 90 57
57 69 91 61 175 -10 98 -107 188 -213 197 -59 5 -110 -10 -119 -35 -5 -12 -9
-13 -21 -3 -20 17 -73 5 -102 -22 -32 -29 -40 -16 -13 22 23 33 61 56 125 76
72 23 114 17 191 -26z m-2188 -74 c15 -7 44 -16 65 -20 33 -6 53 -26 26 -26
-6 0 4 -17 21 -37 18 -20 44 -61 58 -91 74 -162 -56 -362 -237 -362 -33 0 -71
4 -86 10 -43 16 -94 62 -128 115 -30 47 -32 55 -32 145 0 74 4 104 20 135 24
49 85 110 127 129 43 19 132 20 166 2z m504 -172 c21 -13 5 -24 -27 -18 -29 5
-38 2 -60 -22 l-27 -29 8 30 c11 48 23 57 63 50 20 -4 39 -9 43 -11z m-35 -70
c7 -19 -20 -49 -36 -40 -12 8 -15 39 -4 49 12 12 33 7 40 -9z m8 -74 c-7 -12
-52 -14 -58 -2 -3 4 11 8 30 10 21 1 32 -2 28 -8z m-2555 -480 c6 0 10 -5 10
-10 0 -31 392 -391 590 -541 310 -237 637 -427 1013 -590 89 -39 163 -71 164
-73 1 -1 -48 -3 -110 -4 -258 -4 -336 -7 -343 -15 -12 -12 -24 -8 -24 8 0 21
-36 19 -52 -3 -8 -11 -25 -19 -43 -19 -17 0 -43 -3 -58 -7 -20 -5 -27 -3 -27
9 0 19 -29 20 -36 0 -4 -10 -22 -15 -57 -15 -81 -2 -99 -1 -155 6 -35 4 -57 2
-67 -6 -9 -8 -28 -10 -49 -6 -20 4 -37 2 -41 -4 -3 -5 -41 -10 -83 -10 -42 0
-83 -4 -91 -9 -9 -6 -24 -5 -39 0 -16 6 -58 6 -115 0 -71 -8 -94 -8 -109 3
-16 11 -28 11 -76 -4 -40 -13 -62 -15 -75 -8 -11 5 -29 7 -42 4 -14 -4 -25 -1
-27 6 -3 7 -32 14 -75 16 -68 4 -72 3 -88 -22 -21 -32 -29 -33 -43 -1 -7 16
-20 25 -33 25 -21 0 -22 -1 -4 -20 18 -20 17 -20 -23 -20 -47 0 -65 16 -27 26
13 3 23 10 20 14 -3 5 -14 6 -25 3 -11 -3 -20 0 -20 6 0 6 -5 11 -11 11 -6 0
-8 -8 -4 -19 5 -18 -16 -30 -52 -31 -21 0 -8 44 15 55 24 11 28 20 12 30 -5 3
-10 2 -10 -4 0 -6 -24 -8 -57 -6 -48 3 -55 2 -40 -8 50 -33 51 -34 16 -30 -19
2 -44 5 -56 6 -26 2 -30 15 -8 24 28 10 -34 35 -69 27 -28 -6 -29 -5 -17 10
20 24 9 29 -37 17 -24 -7 -49 -8 -63 -3 -18 7 -12 10 33 15 31 3 67 11 80 18
22 12 22 13 3 17 -19 4 -44 29 -45 44 0 4 11 7 25 6 14 -1 25 -8 25 -15 0 -7
6 -13 13 -13 22 0 28 12 15 28 -10 11 -8 17 9 30 11 10 24 27 28 40 5 18 14
22 45 22 42 0 73 22 68 49 -2 11 -18 17 -53 21 -31 3 -45 8 -37 13 6 5 16 6
21 3 5 -3 35 4 67 15 33 11 82 22 110 22 28 1 58 8 65 14 8 7 31 14 50 16 19
2 40 7 47 11 7 4 12 2 12 -3 0 -6 7 -11 15 -11 17 0 55 35 55 50 0 6 11 11 25
11 33 2 38 3 52 12 6 4 14 3 18 -3 3 -5 11 -10 16 -10 6 0 8 4 4 10 -3 5 4 19
16 31 l21 21 19 -21 19 -20 26 24 c26 24 54 24 54 -1 0 -8 5 -14 11 -14 6 0 9
6 6 14 -4 11 3 13 34 9 47 -7 129 14 129 33 0 7 11 14 25 16 14 2 25 8 25 13
-1 9 42 24 78 27 6 1 12 5 12 10 0 5 10 6 23 2 22 -7 22 -6 3 15 -11 11 -23
21 -28 21 -4 0 -16 8 -26 18 -10 9 -36 31 -58 49 -263 212 -452 396 -583 568
l-54 70 57 -57 c31 -32 61 -58 66 -58z m3237 64 c-3 -3 -12 -4 -19 -1 -8 3 -5
6 6 6 11 1 17 -2 13 -5z m-57 -12 c-8 -3 -18 -10 -22 -16 -6 -8 -10 -8 -15 0
-5 6 -15 13 -23 16 -8 3 5 5 30 5 25 1 38 -2 30 -5z m17 -18 c-3 -3 -12 -4
-19 -1 -8 3 -5 6 6 6 11 1 17 -2 13 -5z m2326 -726 c12 10 18 9 32 -5 10 -10
32 -23 49 -29 20 -7 30 -17 28 -27 -2 -12 2 -15 13 -11 8 4 21 1 29 -5 7 -6
16 -7 21 -3 4 4 0 -7 -8 -24 -15 -29 -15 -32 5 -48 16 -14 22 -15 28 -5 6 9
12 9 25 -4 15 -16 15 -17 -4 -17 -25 0 -27 -13 -6 -30 8 -7 15 -23 15 -35 0
-14 7 -25 20 -28 14 -3 18 -1 13 6 -4 7 -9 21 -10 32 -2 16 1 14 14 -7 18 -29
63 -39 63 -15 0 9 3 8 9 -2 6 -9 10 -10 16 -2 4 7 1 18 -5 26 -10 12 -9 15 4
15 9 0 16 -4 16 -10 0 -5 7 -10 16 -10 9 0 14 6 11 13 -4 10 2 13 19 9 18 -3
24 -11 24 -30 0 -13 7 -30 17 -37 24 -18 8 -36 -22 -25 -14 5 -25 7 -25 3 0
-4 -6 1 -13 12 -10 13 -16 15 -21 6 -6 -9 -11 -9 -22 0 -8 6 -14 10 -15 8 0
-2 -2 -15 -5 -29 -7 -42 -13 -50 -29 -44 -8 3 -15 1 -15 -4 0 -10 25 -32 66
-59 17 -10 15 -12 -15 -9 -19 2 -40 10 -46 20 -15 20 -22 20 -41 1 -9 -8 -24
-15 -35 -15 -10 0 -19 -7 -19 -15 0 -18 -5 -18 -30 -5 -13 7 -21 7 -25 0 -3
-5 -17 -10 -30 -10 -18 0 -22 -4 -18 -20 7 -25 -23 -28 -53 -5 -29 22 -53 18
-64 -11 -8 -20 -15 -24 -30 -19 -12 4 -31 0 -44 -8 -15 -10 -28 -12 -37 -6
-35 22 -137 0 -112 -24 3 -4 1 -7 -5 -7 -7 0 -12 7 -12 15 0 17 -2 18 -24 9
-9 -3 -13 -11 -9 -17 4 -7 -7 -8 -33 -4 -21 4 -41 12 -43 18 -2 8 -6 7 -11 -2
-6 -9 -13 -10 -22 -3 -17 14 -56 15 -63 3 -8 -12 -52 -12 -60 1 -6 10 -121 9
-140 -1 -16 -9 -77 -10 -71 -1 9 14 -44 6 -57 -10 -10 -12 -25 -14 -82 -8 -38
4 -74 4 -80 1 -5 -3 -58 -6 -117 -7 l-107 0 40 17 c22 10 70 29 107 43 171 61
447 195 681 329 57 32 118 65 135 72 17 8 47 25 66 39 27 21 41 25 67 20 25
-5 33 -3 33 8 0 22 22 41 31 26 6 -9 11 -9 22 0z m317 -78 c0 -5 -7 -10 -16
-10 -8 0 -12 5 -9 10 3 6 10 10 16 10 5 0 9 -4 9 -10z m-5 -90 c7 -12 -12 -12
-40 0 -18 8 -17 9 7 9 15 1 30 -3 33 -9z m185 -104 c0 -3 -4 -8 -10 -11 -5 -3
-10 -1 -10 4 0 6 5 11 10 11 6 0 10 -2 10 -4z m-120 -55 c0 -6 -4 -13 -10 -16
-5 -3 -10 1 -10 9 0 9 5 16 10 16 6 0 10 -4 10 -9z m-6523 -7 c-3 -3 -12 -4
-19 -1 -8 3 -5 6 6 6 11 1 17 -2 13 -5z m30 -71 c-4 -3 1 -12 11 -19 15 -12
15 -13 1 -14 -9 0 -19 6 -22 14 -5 13 0 26 11 26 3 0 2 -3 -1 -7z m6383 -17
c0 -11 -19 -15 -25 -6 -3 5 1 10 9 10 9 0 16 -2 16 -4z m-6464 -93 c-11 -11
-17 4 -9 23 7 18 8 18 11 1 2 -10 1 -21 -2 -24z m6454 13 c0 -3 -4 -8 -10 -11
-5 -3 -10 -1 -10 4 0 6 5 11 10 11 6 0 10 -2 10 -4z m-6280 -46 c11 -21 -3
-29 -15 -9 -4 6 -13 8 -21 5 -8 -3 -11 0 -7 10 8 20 30 17 43 -6z m4022 -680
c38 -12 111 -15 126 -6 7 4 12 3 12 -3 0 -5 -7 -14 -16 -19 -10 -6 -14 -14 -9
-22 5 -8 10 -9 18 -1 6 6 29 11 50 11 32 0 38 -3 33 -17 -8 -19 9 -33 42 -33
12 0 25 -7 29 -15 4 -12 16 -14 44 -11 28 3 45 -1 61 -15 20 -16 20 -18 6 -19
-11 0 -18 -8 -18 -20 0 -16 -7 -20 -31 -20 -19 0 -28 -4 -24 -11 4 -6 26 -9
49 -8 52 3 104 -17 88 -33 -20 -20 -14 -28 20 -28 17 0 28 -3 25 -7 -11 -11
-244 -5 -287 8 -34 10 -43 10 -56 -3 -18 -18 -9 -46 17 -50 11 -2 21 -7 22
-13 1 -6 -33 -11 -84 -13 -80 -3 -87 -4 -99 -27 -15 -28 -26 -27 -97 8 -40 19
-44 19 -61 4 -17 -15 -23 -16 -53 -3 -19 8 -47 12 -62 9 -19 -4 -32 0 -41 12
-11 15 -13 15 -25 1 -11 -12 -17 -14 -27 -5 -8 6 -14 18 -14 25 0 11 -20 12
-94 9 -52 -2 -113 -9 -135 -14 -23 -5 -49 -7 -59 -5 -16 4 -108 -7 -162 -20
-79 -19 -97 -19 -121 5 l-23 23 24 7 c14 4 46 7 72 8 62 1 68 16 13 31 -56 16
-106 4 -120 -28 -12 -26 -47 -34 -125 -27 -30 3 -70 6 -89 6 -37 0 -91 33 -69
42 10 4 9 8 -2 16 -12 9 -12 11 -1 11 8 0 20 8 27 18 13 16 15 16 27 0 10 -12
23 -15 60 -11 41 5 47 3 41 -11 -9 -23 21 -21 45 3 17 17 17 20 4 25 -8 3 -19
4 -24 0 -5 -3 -9 -1 -9 4 0 5 -14 9 -31 10 -18 0 -37 6 -42 11 -23 23 13 33
139 36 71 2 145 6 164 9 19 2 68 8 107 12 40 4 70 10 68 14 -9 14 -76 22 -90
10 -16 -13 -82 -7 -98 9 -17 17 -30 13 -24 -8 6 -25 -23 -32 -108 -26 -74 4
-74 5 -50 15 11 5 46 9 78 9 59 1 68 9 41 35 -10 11 -34 16 -72 16 -56 0 -111
18 -67 21 11 1 28 1 38 1 10 -1 27 3 38 9 16 8 25 7 38 -5 14 -13 24 -14 45
-6 22 8 29 6 42 -9 17 -20 51 -18 69 3 14 17 236 50 284 42 86 -13 115 -41 74
-72 -10 -7 -15 -16 -11 -20 8 -8 78 -8 86 0 12 13 2 89 -14 101 -17 12 -17 13
2 18 10 2 84 5 163 6 80 1 147 4 150 7 3 2 12 2 20 -2 9 -3 28 -10 43 -14z
m278 -70 c0 -5 -4 -10 -10 -10 -5 0 -10 5 -10 10 0 6 5 10 10 10 6 0 10 -4 10
-10z m-1486 -79 c6 -10 -10 -25 -37 -34 -13 -5 -16 -3 -11 6 21 36 37 46 48
28z m-104 -101 c0 -5 -4 -10 -10 -10 -5 0 -10 5 -10 10 0 6 5 10 10 10 6 0 10
-4 10 -10z m40 -10 c0 -5 -2 -10 -4 -10 -3 0 -8 5 -11 10 -3 6 -1 10 4 10 6 0
11 -4 11 -10z m-4395 -11 c4 -6 0 -9 -11 -7 -23 4 -27 -33 -4 -40 13 -5 13 -3
1 11 -12 15 -11 17 8 17 14 0 21 -6 21 -20 0 -29 -56 -28 -65 0 -11 35 33 68
50 39z m75 -24 c0 -19 -4 -35 -10 -35 -11 0 -14 53 -3 63 11 12 13 8 13 -28z
m74 -2 c11 -20 15 -23 16 -10 0 9 5 17 10 17 6 0 8 -11 4 -27 -10 -41 -24 -52
-30 -25 -7 23 -24 31 -24 10 0 -6 -3 -9 -6 -5 -6 6 4 67 11 67 3 0 11 -12 19
-27z m-252 0 c30 -36 31 -44 4 -37 -20 5 -26 2 -26 -10 0 -9 -5 -16 -11 -16
-6 0 -8 7 -5 16 3 9 6 27 6 40 0 28 11 31 32 7z m-87 -43 c19 -37 19 -51 0
-26 -14 18 -15 18 -15 2 0 -13 -5 -16 -22 -11 -19 6 -21 5 -10 -6 13 -15 16
-29 5 -29 -5 0 -16 13 -25 30 -18 32 -7 50 17 30 8 -7 16 -9 16 -4 1 5 2 14 4
19 1 6 3 13 3 18 3 14 12 7 27 -23z m465 -2 c0 -6 -6 -5 -16 3 -15 12 -16 11
-10 -9 6 -18 4 -21 -11 -16 -17 5 -17 5 0 -9 24 -20 21 -30 -5 -16 -13 6 -24
13 -26 14 -2 2 4 17 13 34 13 27 19 30 35 21 11 -6 20 -16 20 -22z m74 -47
c14 -15 15 -24 6 -40 -13 -24 -29 -26 -55 -7 -18 13 -18 15 -2 40 21 31 28 32
51 7z m-620 -50 c-7 -7 -54 41 -48 50 3 5 16 -3 29 -19 13 -15 21 -29 19 -31z
m5282 45 c14 -11 35 -13 75 -9 53 5 56 4 63 -18 6 -23 7 -23 20 -6 13 17 17
18 43 4 15 -9 36 -18 46 -21 26 -8 17 -26 -23 -48 -42 -22 -90 -24 -90 -4 0
21 -21 25 -50 10 -14 -7 -43 -16 -64 -19 -36 -6 -38 -8 -23 -23 16 -15 18 -15
30 2 12 16 14 16 26 2 8 -9 22 -16 33 -16 14 0 18 -5 14 -15 -8 -21 4 -19 31
7 13 12 23 16 23 10 0 -6 12 -10 26 -9 15 1 29 -4 31 -10 5 -15 1 -16 -82 -33
-33 -6 -67 -15 -76 -20 -9 -4 -22 -4 -30 1 -11 7 -9 10 9 15 30 8 28 17 -8 32
-20 9 -35 10 -47 3 -11 -5 -69 -7 -143 -3 -69 3 -146 5 -172 4 -27 -1 -48 0
-48 3 0 13 83 25 117 16 32 -9 39 -7 65 14 16 14 42 28 56 32 15 3 37 12 49
20 12 8 28 13 35 11 7 -2 15 1 17 6 1 6 -17 17 -41 27 -24 9 -44 24 -46 33 -3
13 6 16 55 16 36 0 67 -6 79 -14z m-5386 -116 c14 -10 22 -21 19 -24 -2 -3
-18 6 -34 19 -35 29 -22 33 15 5z m467 -2 c48 -45 14 -128 -53 -128 -63 0 -96
80 -52 127 28 30 74 30 105 1z m337 0 c-19 -21 -19 -21 4 -16 24 7 32 -16 10
-25 -7 -3 1 -6 17 -6 23 -1 27 -4 15 -11 -24 -16 -73 -13 -67 4 3 8 -1 17 -10
20 -14 6 -13 10 7 31 29 31 51 34 24 3z m4976 12 c0 -5 -11 -10 -24 -10 -15 0
-26 -7 -29 -19 -3 -14 -11 -17 -31 -14 -14 3 -33 0 -42 -7 -12 -11 -18 -10
-31 3 -14 14 -12 16 23 27 22 6 53 14 69 17 17 2 32 7 34 9 9 8 31 4 31 -6z
m60 -14 c0 -2 -7 -6 -15 -10 -8 -3 -15 -1 -15 4 0 6 7 10 15 10 8 0 15 -2 15
-4z m-5846 -55 c3 -5 -1 -12 -10 -15 -10 -4 -13 -13 -9 -27 6 -16 4 -20 -6
-14 -28 16 -49 38 -49 52 0 15 65 19 74 4z m4818 -45 c9 -13 69 -16 61 -3 -3
5 0 8 8 5 8 -3 16 -13 18 -23 2 -13 -1 -16 -13 -12 -8 3 -18 2 -20 -2 -7 -11
-56 -1 -56 10 0 5 -12 14 -26 19 -14 6 -23 14 -19 20 6 10 36 2 47 -14z
m-4159 -89 c27 -116 23 -120 -89 -83 -49 16 -88 34 -91 44 -9 22 111 134 140
130 17 -3 24 -17 40 -91z m217 74 c-28 -16 -60 -22 -60 -12 0 10 22 18 55 20
16 0 17 -1 5 -8z m4510 -1 c0 -5 -18 -10 -40 -10 -22 0 -40 5 -40 10 0 6 18
10 40 10 22 0 40 -4 40 -10z m-117 -7 c-7 -2 -19 -2 -25 0 -7 3 -2 5 12 5 14
0 19 -2 13 -5z m-373 -33 c0 -5 -5 -10 -11 -10 -5 0 -7 5 -4 10 3 6 8 10 11
10 2 0 4 -4 4 -10z m203 -15 c15 -11 11 -13 -31 -19 -50 -6 -121 10 -105 24
22 21 102 18 136 -5z m-4746 -44 c24 -55 29 -60 84 -84 77 -33 80 -57 12 -86
-72 -31 -73 -32 -98 -91 -34 -80 -56 -79 -93 2 -27 59 -33 64 -83 84 -39 16
-55 28 -57 43 -3 18 8 26 62 51 36 16 66 33 66 38 0 5 9 30 20 56 30 67 54 63
87 -13z m546 -1 c-2 -2 -8 2 -12 9 -5 8 -17 11 -29 7 -11 -4 -23 -2 -27 4 -4
6 4 10 20 10 15 0 28 7 33 18 5 13 8 11 12 -13 4 -16 5 -32 3 -35z m-966 24
c21 -6 21 -7 6 -23 -15 -15 -15 -16 0 -19 34 -7 16 -18 -20 -13 -21 3 -30 6
-20 9 18 4 24 32 7 32 -5 0 -10 5 -10 10 0 11 6 12 37 4z m5271 -44 c10 0 24
-5 32 -10 13 -9 13 -11 0 -20 -24 -15 -145 -12 -159 4 -9 11 -2 15 44 21 31 3
55 12 56 18 0 8 2 8 6 0 2 -7 12 -13 21 -13z m775 7 c23 0 27 -4 27 -27 0 -15
-7 -30 -15 -33 -22 -9 -189 1 -216 13 -13 5 -33 16 -44 22 -11 7 -22 14 -24
15 -1 1 0 7 4 13 6 9 38 10 124 5 64 -4 128 -7 144 -8z m-953 -23 c0 -2 -19
-4 -42 -3 -35 1 -38 2 -18 8 23 7 60 4 60 -5z m450 -3 c0 -12 -30 -22 -43 -14
-7 4 -3 9 9 14 26 10 34 10 34 0z m-4571 -17 c2 -2 -3 -4 -12 -4 -20 0 -23
-26 -4 -33 22 -8 0 -18 -27 -11 -24 6 -24 7 -9 23 15 15 15 16 0 19 -9 2 -17
8 -17 12 0 8 59 3 69 -6z m4004 -1 c-7 -2 -21 -2 -30 0 -10 3 -4 5 12 5 17 0
24 -2 18 -5z m-5003 -33 c0 -6 10 -8 24 -4 13 3 27 1 30 -5 5 -7 -2 -11 -18
-11 -14 0 -29 -7 -34 -16 -8 -14 -10 -11 -14 15 -2 17 -1 31 4 31 4 0 8 -5 8
-10z m5705 -13 c33 0 53 -2 45 -4 -8 -2 -24 -8 -35 -13 -76 -34 -235 -31 -235
5 0 20 26 24 100 17 36 -3 92 -5 125 -5z m-5635 -66 c0 -9 -35 -21 -60 -20 -8
0 -1 7 15 14 36 17 45 18 45 6z m873 -39 c28 -25 21 -42 -17 -42 -19 0 -38 5
-41 10 -3 6 1 10 10 10 13 0 16 6 11 26 -7 27 1 26 37 -4z m-846 -36 c-3 -8 1
-17 10 -20 14 -6 13 -10 -7 -31 -29 -31 -51 -34 -24 -3 19 21 19 21 -3 16 -25
-7 -33 16 -10 25 6 3 -1 6 -18 6 -23 1 -27 4 -15 11 24 16 73 13 67 -4z m819
-73 c-6 -7 -56 27 -56 39 0 5 14 0 31 -12 16 -12 28 -24 25 -27z m-712 -56
c18 -13 18 -15 1 -40 -20 -32 -23 -32 -46 -11 -18 16 -15 42 5 56 15 11 20 10
40 -5z m606 -22 c13 -14 19 -25 13 -25 -5 0 -20 11 -33 25 -13 14 -19 25 -13
25 5 0 20 -11 33 -25z m-53 -27 c10 -23 12 -44 3 -41 -3 1 -13 5 -24 9 -15 6
-17 4 -12 -14 11 -33 -12 -35 -29 -3 -19 38 -19 52 0 27 14 -18 15 -18 15 -2
0 13 5 16 23 11 18 -6 20 -5 10 6 -15 15 -17 29 -5 29 5 0 13 -10 19 -22z
m-459 -13 c2 -2 -4 -17 -13 -34 -13 -27 -19 -30 -35 -21 -24 13 -27 25 -4 16
12 -4 14 -1 9 14 -5 16 -3 19 12 14 17 -5 17 -5 1 9 -25 20 -22 30 5 16 12 -6
23 -13 25 -14z m348 -31 c-3 -9 -6 -27 -6 -40 0 -32 -14 -30 -40 6 l-22 31 26
-7 c20 -5 26 -2 26 10 0 9 5 16 11 16 6 0 8 -7 5 -16z m-286 -9 c0 -18 16 -20
23 -2 3 6 5 3 6 -8 0 -11 -4 -29 -8 -40 -8 -19 -9 -18 -21 7 -12 25 -14 26
-26 10 -16 -20 -17 -12 -4 22 10 28 30 35 30 11z m90 -35 c0 -16 -4 -30 -10
-30 -5 0 -10 14 -10 30 0 17 5 30 10 30 6 0 10 -13 10 -30z m105 10 c11 -35
-33 -68 -50 -39 -4 6 0 9 11 7 23 -4 27 33 4 40 -13 5 -13 3 -1 -11 12 -15 11
-17 -8 -17 -14 0 -21 6 -21 20 0 29 56 28 65 0z"/>
<path d="M2776 8508 c-37 -64 -117 -240 -112 -246 3 -3 37 60 75 139 69 143
86 189 37 107z"/>
<path d="M2637 8213 c-4 -3 -7 -11 -7 -17 0 -6 5 -5 12 2 6 6 9 14 7 17 -3 3
-9 2 -12 -2z"/>
<path d="M2606 8139 c-22 -54 -15 -61 9 -9 10 22 16 43 13 46 -3 2 -13 -14
-22 -37z"/>
<path d="M8957 7874 c-3 -5 1 -15 9 -22 16 -14 18 -5 5 17 -5 7 -11 9 -14 5z"/>
<path d="M8910 7851 c0 -6 4 -13 10 -16 6 -3 7 1 4 9 -7 18 -14 21 -14 7z"/>
<path d="M3247 7413 c-11 -10 -8 -35 3 -28 6 3 10 -1 10 -10 0 -9 4 -14 10
-10 5 3 6 13 3 21 -3 9 0 20 8 25 11 7 9 9 -7 9 -11 0 -24 -3 -27 -7z"/>
<path d="M6098 9096 c-37 -20 -106 -89 -116 -118 -16 -42 -35 -195 -28 -221 9
-37 65 -107 113 -140 40 -28 44 -29 106 -20 41 6 93 5 142 -1 75 -9 80 -9 132
19 63 33 116 90 139 152 15 39 16 48 2 91 -9 26 -13 61 -11 78 6 37 -40 117
-78 139 -54 31 -73 36 -94 26 -28 -15 -80 -16 -144 -2 -72 15 -130 14 -163 -3z"/>
<path d="M5563 9045 c-38 -16 -82 -78 -89 -127 -8 -47 18 -96 61 -114 56 -23
84 -18 125 24 71 71 74 171 6 213 -36 22 -59 23 -103 4z m102 -85 c3 -5 -1
-10 -9 -10 -8 0 -18 5 -21 10 -3 6 1 10 9 10 8 0 18 -4 21 -10z"/>
<path d="M5207 8660 c-32 -10 -68 -27 -79 -37 -92 -83 -136 -259 -88 -358 31
-64 97 -125 134 -124 17 0 81 -5 143 -12 101 -11 116 -10 157 5 57 22 140 96
168 150 28 53 27 112 -1 204 -34 113 -101 174 -186 170 -16 0 -54 4 -84 11
-71 15 -95 13 -164 -9z"/>
<path d="M4856 7965 c-22 -6 -52 -15 -65 -19 -16 -6 -21 -5 -17 3 11 18 -14
13 -45 -10 -63 -44 -155 -192 -174 -278 -9 -40 11 -134 42 -194 32 -63 122
-157 151 -157 12 0 31 5 41 12 14 9 51 9 152 1 l134 -11 44 25 c44 25 98 60
136 86 25 18 77 111 81 146 4 33 -30 189 -57 263 -25 69 -65 100 -158 123 -76
20 -208 24 -265 10z m-101 -44 c-3 -6 -11 -11 -17 -11 -6 0 -6 6 2 15 14 17
26 13 15 -4z"/>
<path d="M6396 7331 c-10 -15 4 -40 26 -47 23 -7 52 15 30 23 -7 3 -19 11 -26
19 -17 16 -23 17 -30 5z"/>
<path d="M5955 7255 c-39 -18 -11 -18 35 0 22 8 28 13 15 13 -11 0 -33 -6 -50
-13z"/>
<path d="M5805 7220 c-3 -5 -1 -10 4 -10 6 0 11 5 11 10 0 6 -2 10 -4 10 -3 0
-8 -4 -11 -10z"/>
<path d="M5690 7178 c0 -20 1 -21 20 -3 11 10 20 20 20 22 0 1 -9 3 -20 3 -14
0 -20 -7 -20 -22z"/>
<path d="M5797 7183 c-12 -11 -8 -23 7 -23 7 0 19 7 26 15 10 12 9 15 -7 15
-11 0 -23 -3 -26 -7z"/>
<path d="M6118 7093 c6 -2 18 -2 25 0 6 3 1 5 -13 5 -14 0 -19 -2 -12 -5z"/>
<path d="M6053 7079 c-18 -5 -33 -12 -33 -14 0 -8 53 6 65 16 10 10 11 10 -32
-2z"/>
<path d="M6540 5954 c-64 -33 -211 -74 -262 -74 -15 0 -30 -5 -33 -11 -5 -7 5
-8 32 -4 21 4 52 9 68 11 64 11 224 68 251 90 39 31 22 28 -56 -12z"/>
<path d="M6061 5896 c10 -11 149 -34 154 -26 2 4 -21 10 -53 14 -31 3 -68 9
-82 12 -14 4 -22 4 -19 0z"/>
<path d="M5640 3925 c-15 -16 -23 -37 -24 -64 -2 -74 67 -117 172 -109 47 4
60 10 84 37 24 27 29 40 26 73 -3 36 -8 44 -38 59 -22 12 -66 21 -116 24 -76
4 -83 3 -104 -20z"/>
<path d="M7352 3924 c-12 -8 -22 -22 -22 -30 0 -8 -4 -14 -9 -14 -15 0 -42
-31 -36 -41 4 -5 22 -9 41 -9 24 0 34 -5 34 -15 0 -8 2 -15 5 -15 9 0 40 37
57 68 16 30 16 31 -2 37 -10 3 -21 12 -24 20 -7 19 -16 19 -44 -1z"/>
<path d="M5338 3693 c7 -3 16 -2 19 1 4 3 -2 6 -13 5 -11 0 -14 -3 -6 -6z"/>
<path d="M7548 6201 c-53 -34 -94 -84 -103 -126 l-6 -30 17 25 c10 14 48 55
86 93 38 37 65 67 60 67 -4 0 -29 -13 -54 -29z"/>
<path d="M6555 5700 c-3 -5 -1 -10 4 -10 6 0 11 5 11 10 0 6 -2 10 -4 10 -3 0
-8 -4 -11 -10z"/>
<path d="M6098 5693 c6 -2 18 -2 25 0 6 3 1 5 -13 5 -14 0 -19 -2 -12 -5z"/>
<path d="M4044 5536 c-39 -17 -91 -80 -106 -128 -15 -51 -2 -119 32 -167 37
-51 84 -65 202 -59 72 3 93 8 125 30 51 34 73 80 73 155 0 82 -23 125 -75 139
-22 6 -47 13 -55 16 -78 31 -145 36 -196 14z"/>
<path d="M4675 5429 c-86 -46 -157 -139 -171 -227 -13 -83 52 -213 132 -261
29 -18 175 -36 261 -33 47 1 109 29 166 76 121 97 127 277 14 401 l-42 46
-115 3 c-63 2 -135 6 -160 10 -35 5 -54 2 -85 -15z m375 -44 c14 -19 14 -19
-2 -6 -10 7 -18 18 -18 24 0 6 1 8 3 6 1 -2 9 -13 17 -24z"/>
<path d="M6647 5270 c-33 -20 -63 -55 -104 -116 l-58 -87 0 -86 c1 -126 24
-192 89 -257 29 -29 73 -65 97 -81 44 -27 49 -28 180 -28 130 0 136 1 188 30
80 44 145 113 171 182 19 49 21 72 17 145 -6 125 -38 186 -121 239 -109 70
-131 75 -264 60 -111 -12 -138 -20 -189 -57 -13 -9 -23 -12 -23 -7 0 13 38 53
70 75 45 30 -3 20 -53 -12z"/>
<path d="M6395 4537 c-11 -6 -75 -14 -142 -18 -141 -7 -168 -19 -221 -98 -96
-141 -79 -261 56 -403 45 -48 69 -63 136 -89 73 -28 88 -30 151 -24 122 11
144 21 213 91 80 81 112 147 112 232 0 115 -62 239 -145 287 -49 29 -129 40
-160 22z"/>
<path d="M5111 4469 c-78 -15 -144 -102 -145 -191 0 -104 101 -180 249 -186
76 -3 82 -2 129 29 51 34 85 90 86 140 0 45 -28 121 -56 150 -55 57 -156 79
-263 58z"/>
<path d="M3040 2881 c0 -6 4 -13 10 -16 6 -3 7 1 4 9 -7 18 -14 21 -14 7z"/>
<path d="M2943 2843 c-18 -7 -16 -23 2 -23 8 0 15 7 15 15 0 8 -1 15 -2 14 -2
0 -9 -3 -15 -6z"/>
<path d="M2892 2811 c-10 -6 -10 -10 2 -20 9 -8 16 -8 20 -2 4 6 14 8 24 5 14
-5 14 -3 -2 10 -23 18 -26 19 -44 7z"/>
<path d="M2895 2731 c-3 -5 -1 -12 5 -16 5 -3 10 1 10 9 0 18 -6 21 -15 7z"/>
<path d="M2715 2682 c-3 -3 -5 -14 -5 -24 0 -19 17 -22 58 -12 20 6 31 32 15
36 -23 4 -63 4 -68 0z"/>
<path d="M2760 2540 c0 -5 9 -10 21 -10 11 0 17 5 14 10 -3 6 -13 10 -21 10
-8 0 -14 -4 -14 -10z"/>
<path d="M8770 2940 c0 -5 5 -10 10 -10 6 0 10 5 10 10 0 6 -4 10 -10 10 -5 0
-10 -4 -10 -10z"/>
<path d="M8930 2750 c0 -5 5 -10 10 -10 6 0 10 5 10 10 0 6 -4 10 -10 10 -5 0
-10 -4 -10 -10z"/>
<path d="M8900 2670 c36 -11 50 -11 50 0 0 6 -17 10 -37 9 -34 -1 -35 -2 -13
-9z"/>
<path d="M8570 2570 c-9 -6 -10 -10 -3 -10 6 0 19 -3 27 -6 12 -5 15 -2 10 10
-7 18 -13 20 -34 6z"/>
<path d="M8385 2550 c-3 -5 -2 -10 4 -10 5 0 13 5 16 10 3 6 2 10 -4 10 -5 0
-13 -4 -16 -10z"/>
<path d="M6367 1754 c-12 -12 4 -24 34 -24 16 0 29 5 29 10 0 6 -6 10 -14 10
-8 0 -21 2 -28 5 -8 3 -17 3 -21 -1z"/>
<path d="M6020 1741 c0 -18 34 -29 95 -32 58 -3 85 11 48 26 -31 12 -143 17
-143 6z"/>
<path d="M6088 1663 c7 -3 16 -2 19 1 4 3 -2 6 -13 5 -11 0 -14 -3 -6 -6z"/>
<path d="M5969 1639 c-52 -10 -87 -26 -69 -32 56 -20 91 -26 136 -24 48 2 51
3 50 29 -1 22 -5 26 -18 22 -10 -3 -18 -2 -18 3 0 10 -34 10 -81 2z"/>
<path d="M6277 1601 l-29 -6 31 -22 c30 -23 67 -32 56 -14 -3 5 -1 12 5 16 5
3 10 13 10 21 0 15 -23 16 -73 5z"/>
<path d="M7066 1581 c-4 -5 -2 -12 3 -15 5 -4 12 -2 15 3 4 5 2 12 -3 15 -5 4
-12 2 -15 -3z"/>
<path d="M6505 1565 c-26 -19 -135 -32 -135 -16 0 6 -4 11 -9 11 -4 0 -6 -12
-3 -26 5 -26 6 -26 66 -19 34 3 84 6 112 5 86 -2 139 31 72 44 -18 3 -44 8
-58 11 -14 3 -34 -2 -45 -10z"/>
<path d="M1352 1418 c-7 -7 -12 -16 -12 -20 0 -12 28 -10 36 3 10 17 -10 31
-24 17z"/>
<path d="M5987 1316 c-3 -8 -2 -18 3 -21 13 -8 24 15 12 27 -6 6 -11 4 -15 -6z"/>
<path d="M6620 1039 c0 -5 5 -7 10 -4 6 3 10 8 10 11 0 2 -4 4 -10 4 -5 0 -10
-5 -10 -11z"/>
<path d="M725 700 c-11 -17 5 -32 21 -19 8 6 14 15 14 20 0 12 -27 11 -35 -1z"/>
</g>
</svg>
